<mxfile host="Electron" modified="2023-11-09T08:35:04.924Z" agent="Mozilla/5.0 (Windows NT 10.0; Win64; x64) AppleWebKit/537.36 (KHTML, like Gecko) draw.io/22.0.3 Chrome/114.0.5735.289 Electron/25.8.4 Safari/537.36" etag="F9RhaJ-_jLpr6Zt0iHNU" version="22.0.3" type="device" pages="2">
  <diagram id="nfhXtxpuKkWH3hl8gxGu" name="ER図">
    <mxGraphModel dx="506" dy="645" grid="1" gridSize="10" guides="1" tooltips="1" connect="1" arrows="1" fold="1" page="1" pageScale="1" pageWidth="827" pageHeight="1169" math="0" shadow="0">
      <root>
        <mxCell id="0" />
        <mxCell id="1" parent="0" />
        <mxCell id="HxpxRqRVrvvPyobryTdf-1" value="&lt;font color=&quot;#ffffff&quot;&gt;■EZ図&lt;/font&gt;" style="text;html=1;align=center;verticalAlign=middle;resizable=0;points=[];autosize=1;strokeColor=none;fillColor=none;fontColor=#393C56;" parent="1" vertex="1">
          <mxGeometry x="40" y="50" width="60" height="30" as="geometry" />
        </mxCell>
        <mxCell id="HxpxRqRVrvvPyobryTdf-73" style="edgeStyle=orthogonalEdgeStyle;rounded=0;orthogonalLoop=1;jettySize=auto;html=1;endArrow=ERmany;endFill=0;strokeWidth=2;endSize=15;strokeColor=#FFB570;" parent="1" source="HxpxRqRVrvvPyobryTdf-47" target="HxpxRqRVrvvPyobryTdf-60" edge="1">
          <mxGeometry relative="1" as="geometry" />
        </mxCell>
        <mxCell id="HxpxRqRVrvvPyobryTdf-132" style="edgeStyle=orthogonalEdgeStyle;rounded=0;orthogonalLoop=1;jettySize=auto;html=1;strokeWidth=2;strokeColor=#FFB570;endSize=15;endArrow=ERmany;endFill=0;" parent="1" source="HxpxRqRVrvvPyobryTdf-47" target="HxpxRqRVrvvPyobryTdf-87" edge="1">
          <mxGeometry relative="1" as="geometry" />
        </mxCell>
        <mxCell id="HxpxRqRVrvvPyobryTdf-47" value="&lt;font style=&quot;font-size: 15px;&quot;&gt;プロジェクト Mst&lt;/font&gt;" style="shape=table;startSize=30;container=1;collapsible=1;childLayout=tableLayout;fixedRows=1;rowLines=0;fontStyle=1;align=center;resizeLast=1;html=1;" parent="1" vertex="1">
          <mxGeometry x="80" y="355" width="246" height="160" as="geometry" />
        </mxCell>
        <mxCell id="HxpxRqRVrvvPyobryTdf-48" value="" style="shape=tableRow;horizontal=0;startSize=0;swimlaneHead=0;swimlaneBody=0;fillColor=none;collapsible=0;dropTarget=0;points=[[0,0.5],[1,0.5]];portConstraint=eastwest;top=0;left=0;right=0;bottom=1;" parent="HxpxRqRVrvvPyobryTdf-47" vertex="1">
          <mxGeometry y="30" width="246" height="30" as="geometry" />
        </mxCell>
        <mxCell id="HxpxRqRVrvvPyobryTdf-49" value="&lt;font style=&quot;font-size: 15px;&quot;&gt;PK&lt;/font&gt;" style="shape=partialRectangle;connectable=0;fillColor=none;top=0;left=0;bottom=0;right=0;fontStyle=1;overflow=hidden;whiteSpace=wrap;html=1;" parent="HxpxRqRVrvvPyobryTdf-48" vertex="1">
          <mxGeometry width="30" height="30" as="geometry">
            <mxRectangle width="30" height="30" as="alternateBounds" />
          </mxGeometry>
        </mxCell>
        <mxCell id="HxpxRqRVrvvPyobryTdf-50" value="&lt;font style=&quot;font-size: 15px;&quot;&gt;プロジェクトID&lt;/font&gt;" style="shape=partialRectangle;connectable=0;fillColor=none;top=0;left=0;bottom=0;right=0;align=left;spacingLeft=6;fontStyle=5;overflow=hidden;whiteSpace=wrap;html=1;" parent="HxpxRqRVrvvPyobryTdf-48" vertex="1">
          <mxGeometry x="30" width="216" height="30" as="geometry">
            <mxRectangle width="216" height="30" as="alternateBounds" />
          </mxGeometry>
        </mxCell>
        <mxCell id="HxpxRqRVrvvPyobryTdf-51" value="" style="shape=tableRow;horizontal=0;startSize=0;swimlaneHead=0;swimlaneBody=0;fillColor=none;collapsible=0;dropTarget=0;points=[[0,0.5],[1,0.5]];portConstraint=eastwest;top=0;left=0;right=0;bottom=0;" parent="HxpxRqRVrvvPyobryTdf-47" vertex="1">
          <mxGeometry y="60" width="246" height="30" as="geometry" />
        </mxCell>
        <mxCell id="HxpxRqRVrvvPyobryTdf-52" value="" style="shape=partialRectangle;connectable=0;fillColor=none;top=0;left=0;bottom=0;right=0;editable=1;overflow=hidden;whiteSpace=wrap;html=1;" parent="HxpxRqRVrvvPyobryTdf-51" vertex="1">
          <mxGeometry width="30" height="30" as="geometry">
            <mxRectangle width="30" height="30" as="alternateBounds" />
          </mxGeometry>
        </mxCell>
        <mxCell id="HxpxRqRVrvvPyobryTdf-53" value="&lt;span style=&quot;font-size: 15px;&quot;&gt;プロジェクト名　char&lt;/span&gt;" style="shape=partialRectangle;connectable=0;fillColor=none;top=0;left=0;bottom=0;right=0;align=left;spacingLeft=6;overflow=hidden;whiteSpace=wrap;html=1;" parent="HxpxRqRVrvvPyobryTdf-51" vertex="1">
          <mxGeometry x="30" width="216" height="30" as="geometry">
            <mxRectangle width="216" height="30" as="alternateBounds" />
          </mxGeometry>
        </mxCell>
        <mxCell id="HxpxRqRVrvvPyobryTdf-54" value="" style="shape=tableRow;horizontal=0;startSize=0;swimlaneHead=0;swimlaneBody=0;fillColor=none;collapsible=0;dropTarget=0;points=[[0,0.5],[1,0.5]];portConstraint=eastwest;top=0;left=0;right=0;bottom=0;" parent="HxpxRqRVrvvPyobryTdf-47" vertex="1">
          <mxGeometry y="90" width="246" height="30" as="geometry" />
        </mxCell>
        <mxCell id="HxpxRqRVrvvPyobryTdf-55" value="" style="shape=partialRectangle;connectable=0;fillColor=none;top=0;left=0;bottom=0;right=0;editable=1;overflow=hidden;whiteSpace=wrap;html=1;" parent="HxpxRqRVrvvPyobryTdf-54" vertex="1">
          <mxGeometry width="30" height="30" as="geometry">
            <mxRectangle width="30" height="30" as="alternateBounds" />
          </mxGeometry>
        </mxCell>
        <mxCell id="HxpxRqRVrvvPyobryTdf-56" value="&lt;span style=&quot;font-size: 15px;&quot;&gt;開始日 date (yyyy/mm/dd)&lt;/span&gt;" style="shape=partialRectangle;connectable=0;fillColor=none;top=0;left=0;bottom=0;right=0;align=left;spacingLeft=6;overflow=hidden;whiteSpace=wrap;html=1;" parent="HxpxRqRVrvvPyobryTdf-54" vertex="1">
          <mxGeometry x="30" width="216" height="30" as="geometry">
            <mxRectangle width="216" height="30" as="alternateBounds" />
          </mxGeometry>
        </mxCell>
        <mxCell id="HxpxRqRVrvvPyobryTdf-57" value="" style="shape=tableRow;horizontal=0;startSize=0;swimlaneHead=0;swimlaneBody=0;fillColor=none;collapsible=0;dropTarget=0;points=[[0,0.5],[1,0.5]];portConstraint=eastwest;top=0;left=0;right=0;bottom=0;" parent="HxpxRqRVrvvPyobryTdf-47" vertex="1">
          <mxGeometry y="120" width="246" height="30" as="geometry" />
        </mxCell>
        <mxCell id="HxpxRqRVrvvPyobryTdf-58" value="" style="shape=partialRectangle;connectable=0;fillColor=none;top=0;left=0;bottom=0;right=0;editable=1;overflow=hidden;whiteSpace=wrap;html=1;" parent="HxpxRqRVrvvPyobryTdf-57" vertex="1">
          <mxGeometry width="30" height="30" as="geometry">
            <mxRectangle width="30" height="30" as="alternateBounds" />
          </mxGeometry>
        </mxCell>
        <mxCell id="HxpxRqRVrvvPyobryTdf-59" value="&lt;span style=&quot;font-size: 15px;&quot;&gt;終了日 date (yyyy/mm/dd)&lt;/span&gt;" style="shape=partialRectangle;connectable=0;fillColor=none;top=0;left=0;bottom=0;right=0;align=left;spacingLeft=6;overflow=hidden;whiteSpace=wrap;html=1;" parent="HxpxRqRVrvvPyobryTdf-57" vertex="1">
          <mxGeometry x="30" width="216" height="30" as="geometry">
            <mxRectangle width="216" height="30" as="alternateBounds" />
          </mxGeometry>
        </mxCell>
        <mxCell id="HxpxRqRVrvvPyobryTdf-60" value="&lt;span style=&quot;font-size: 15px;&quot;&gt;マイルストーン Table&lt;/span&gt;" style="shape=table;startSize=30;container=1;collapsible=1;childLayout=tableLayout;fixedRows=1;rowLines=0;fontStyle=1;align=center;resizeLast=1;html=1;" parent="1" vertex="1">
          <mxGeometry x="81" y="575" width="246" height="180" as="geometry">
            <mxRectangle x="185" y="930" width="190" height="30" as="alternateBounds" />
          </mxGeometry>
        </mxCell>
        <mxCell id="HxpxRqRVrvvPyobryTdf-61" value="" style="shape=tableRow;horizontal=0;startSize=0;swimlaneHead=0;swimlaneBody=0;fillColor=none;collapsible=0;dropTarget=0;points=[[0,0.5],[1,0.5]];portConstraint=eastwest;top=0;left=0;right=0;bottom=1;" parent="HxpxRqRVrvvPyobryTdf-60" vertex="1">
          <mxGeometry y="30" width="246" height="30" as="geometry" />
        </mxCell>
        <mxCell id="HxpxRqRVrvvPyobryTdf-62" value="&lt;font style=&quot;font-size: 15px;&quot;&gt;PK&lt;/font&gt;" style="shape=partialRectangle;connectable=0;fillColor=none;top=0;left=0;bottom=0;right=0;fontStyle=1;overflow=hidden;whiteSpace=wrap;html=1;" parent="HxpxRqRVrvvPyobryTdf-61" vertex="1">
          <mxGeometry width="30" height="30" as="geometry">
            <mxRectangle width="30" height="30" as="alternateBounds" />
          </mxGeometry>
        </mxCell>
        <mxCell id="HxpxRqRVrvvPyobryTdf-63" value="&lt;font style=&quot;font-size: 15px;&quot;&gt;マイルストーンID&lt;/font&gt;" style="shape=partialRectangle;connectable=0;fillColor=none;top=0;left=0;bottom=0;right=0;align=left;spacingLeft=6;fontStyle=5;overflow=hidden;whiteSpace=wrap;html=1;" parent="HxpxRqRVrvvPyobryTdf-61" vertex="1">
          <mxGeometry x="30" width="216" height="30" as="geometry">
            <mxRectangle width="216" height="30" as="alternateBounds" />
          </mxGeometry>
        </mxCell>
        <mxCell id="HxpxRqRVrvvPyobryTdf-64" value="" style="shape=tableRow;horizontal=0;startSize=0;swimlaneHead=0;swimlaneBody=0;fillColor=none;collapsible=0;dropTarget=0;points=[[0,0.5],[1,0.5]];portConstraint=eastwest;top=0;left=0;right=0;bottom=0;" parent="HxpxRqRVrvvPyobryTdf-60" vertex="1">
          <mxGeometry y="60" width="246" height="30" as="geometry" />
        </mxCell>
        <mxCell id="HxpxRqRVrvvPyobryTdf-65" value="" style="shape=partialRectangle;connectable=0;fillColor=none;top=0;left=0;bottom=0;right=0;editable=1;overflow=hidden;whiteSpace=wrap;html=1;" parent="HxpxRqRVrvvPyobryTdf-64" vertex="1">
          <mxGeometry width="30" height="30" as="geometry">
            <mxRectangle width="30" height="30" as="alternateBounds" />
          </mxGeometry>
        </mxCell>
        <mxCell id="HxpxRqRVrvvPyobryTdf-66" value="&lt;span style=&quot;font-size: 15px;&quot;&gt;プロジェクト名（FK）&lt;br&gt;&lt;/span&gt;" style="shape=partialRectangle;connectable=0;fillColor=none;top=0;left=0;bottom=0;right=0;align=left;spacingLeft=6;overflow=hidden;whiteSpace=wrap;html=1;" parent="HxpxRqRVrvvPyobryTdf-64" vertex="1">
          <mxGeometry x="30" width="216" height="30" as="geometry">
            <mxRectangle width="216" height="30" as="alternateBounds" />
          </mxGeometry>
        </mxCell>
        <mxCell id="HxpxRqRVrvvPyobryTdf-102" value="" style="shape=tableRow;horizontal=0;startSize=0;swimlaneHead=0;swimlaneBody=0;fillColor=none;collapsible=0;dropTarget=0;points=[[0,0.5],[1,0.5]];portConstraint=eastwest;top=0;left=0;right=0;bottom=0;" parent="HxpxRqRVrvvPyobryTdf-60" vertex="1">
          <mxGeometry y="90" width="246" height="30" as="geometry" />
        </mxCell>
        <mxCell id="HxpxRqRVrvvPyobryTdf-103" value="" style="shape=partialRectangle;connectable=0;fillColor=none;top=0;left=0;bottom=0;right=0;editable=1;overflow=hidden;whiteSpace=wrap;html=1;" parent="HxpxRqRVrvvPyobryTdf-102" vertex="1">
          <mxGeometry width="30" height="30" as="geometry">
            <mxRectangle width="30" height="30" as="alternateBounds" />
          </mxGeometry>
        </mxCell>
        <mxCell id="HxpxRqRVrvvPyobryTdf-104" value="&lt;span style=&quot;font-size: 15px;&quot;&gt;マイルストーン名　char&lt;br&gt;&lt;/span&gt;" style="shape=partialRectangle;connectable=0;fillColor=none;top=0;left=0;bottom=0;right=0;align=left;spacingLeft=6;overflow=hidden;whiteSpace=wrap;html=1;" parent="HxpxRqRVrvvPyobryTdf-102" vertex="1">
          <mxGeometry x="30" width="216" height="30" as="geometry">
            <mxRectangle width="216" height="30" as="alternateBounds" />
          </mxGeometry>
        </mxCell>
        <mxCell id="HxpxRqRVrvvPyobryTdf-67" value="" style="shape=tableRow;horizontal=0;startSize=0;swimlaneHead=0;swimlaneBody=0;fillColor=none;collapsible=0;dropTarget=0;points=[[0,0.5],[1,0.5]];portConstraint=eastwest;top=0;left=0;right=0;bottom=0;" parent="HxpxRqRVrvvPyobryTdf-60" vertex="1">
          <mxGeometry y="120" width="246" height="30" as="geometry" />
        </mxCell>
        <mxCell id="HxpxRqRVrvvPyobryTdf-68" value="" style="shape=partialRectangle;connectable=0;fillColor=none;top=0;left=0;bottom=0;right=0;editable=1;overflow=hidden;whiteSpace=wrap;html=1;" parent="HxpxRqRVrvvPyobryTdf-67" vertex="1">
          <mxGeometry width="30" height="30" as="geometry">
            <mxRectangle width="30" height="30" as="alternateBounds" />
          </mxGeometry>
        </mxCell>
        <mxCell id="HxpxRqRVrvvPyobryTdf-69" value="&lt;span style=&quot;font-size: 15px;&quot;&gt;開始日 date (yyyy/mm/dd)&lt;/span&gt;" style="shape=partialRectangle;connectable=0;fillColor=none;top=0;left=0;bottom=0;right=0;align=left;spacingLeft=6;overflow=hidden;whiteSpace=wrap;html=1;" parent="HxpxRqRVrvvPyobryTdf-67" vertex="1">
          <mxGeometry x="30" width="216" height="30" as="geometry">
            <mxRectangle width="216" height="30" as="alternateBounds" />
          </mxGeometry>
        </mxCell>
        <mxCell id="HxpxRqRVrvvPyobryTdf-70" value="" style="shape=tableRow;horizontal=0;startSize=0;swimlaneHead=0;swimlaneBody=0;fillColor=none;collapsible=0;dropTarget=0;points=[[0,0.5],[1,0.5]];portConstraint=eastwest;top=0;left=0;right=0;bottom=0;" parent="HxpxRqRVrvvPyobryTdf-60" vertex="1">
          <mxGeometry y="150" width="246" height="30" as="geometry" />
        </mxCell>
        <mxCell id="HxpxRqRVrvvPyobryTdf-71" value="" style="shape=partialRectangle;connectable=0;fillColor=none;top=0;left=0;bottom=0;right=0;editable=1;overflow=hidden;whiteSpace=wrap;html=1;" parent="HxpxRqRVrvvPyobryTdf-70" vertex="1">
          <mxGeometry width="30" height="30" as="geometry">
            <mxRectangle width="30" height="30" as="alternateBounds" />
          </mxGeometry>
        </mxCell>
        <mxCell id="HxpxRqRVrvvPyobryTdf-72" value="&lt;span style=&quot;font-size: 15px;&quot;&gt;終了日 date (yyyy/mm/dd)&lt;/span&gt;" style="shape=partialRectangle;connectable=0;fillColor=none;top=0;left=0;bottom=0;right=0;align=left;spacingLeft=6;overflow=hidden;whiteSpace=wrap;html=1;" parent="HxpxRqRVrvvPyobryTdf-70" vertex="1">
          <mxGeometry x="30" width="216" height="30" as="geometry">
            <mxRectangle width="216" height="30" as="alternateBounds" />
          </mxGeometry>
        </mxCell>
        <mxCell id="HxpxRqRVrvvPyobryTdf-186" style="edgeStyle=orthogonalEdgeStyle;rounded=0;orthogonalLoop=1;jettySize=auto;html=1;strokeWidth=2;strokeColor=#FFB570;endArrow=ERmany;endFill=0;endSize=15;" parent="1" source="HxpxRqRVrvvPyobryTdf-74" target="HxpxRqRVrvvPyobryTdf-157" edge="1">
          <mxGeometry relative="1" as="geometry">
            <Array as="points">
              <mxPoint x="690" y="730" />
              <mxPoint x="690" y="935" />
            </Array>
          </mxGeometry>
        </mxCell>
        <mxCell id="HxpxRqRVrvvPyobryTdf-74" value="&lt;span style=&quot;font-size: 15px;&quot;&gt;タスク Table&lt;/span&gt;" style="shape=table;startSize=30;container=1;collapsible=1;childLayout=tableLayout;fixedRows=1;rowLines=0;fontStyle=1;align=center;resizeLast=1;html=1;" parent="1" vertex="1">
          <mxGeometry x="410" y="585" width="246" height="190" as="geometry" />
        </mxCell>
        <mxCell id="HxpxRqRVrvvPyobryTdf-75" value="" style="shape=tableRow;horizontal=0;startSize=0;swimlaneHead=0;swimlaneBody=0;fillColor=none;collapsible=0;dropTarget=0;points=[[0,0.5],[1,0.5]];portConstraint=eastwest;top=0;left=0;right=0;bottom=1;" parent="HxpxRqRVrvvPyobryTdf-74" vertex="1">
          <mxGeometry y="30" width="246" height="30" as="geometry" />
        </mxCell>
        <mxCell id="HxpxRqRVrvvPyobryTdf-76" value="&lt;font style=&quot;font-size: 15px;&quot;&gt;PK&lt;/font&gt;" style="shape=partialRectangle;connectable=0;fillColor=none;top=0;left=0;bottom=0;right=0;fontStyle=1;overflow=hidden;whiteSpace=wrap;html=1;" parent="HxpxRqRVrvvPyobryTdf-75" vertex="1">
          <mxGeometry width="30" height="30" as="geometry">
            <mxRectangle width="30" height="30" as="alternateBounds" />
          </mxGeometry>
        </mxCell>
        <mxCell id="HxpxRqRVrvvPyobryTdf-77" value="&lt;font style=&quot;font-size: 15px;&quot;&gt;タスクID&lt;/font&gt;" style="shape=partialRectangle;connectable=0;fillColor=none;top=0;left=0;bottom=0;right=0;align=left;spacingLeft=6;fontStyle=5;overflow=hidden;whiteSpace=wrap;html=1;" parent="HxpxRqRVrvvPyobryTdf-75" vertex="1">
          <mxGeometry x="30" width="216" height="30" as="geometry">
            <mxRectangle width="216" height="30" as="alternateBounds" />
          </mxGeometry>
        </mxCell>
        <mxCell id="HxpxRqRVrvvPyobryTdf-78" value="" style="shape=tableRow;horizontal=0;startSize=0;swimlaneHead=0;swimlaneBody=0;fillColor=none;collapsible=0;dropTarget=0;points=[[0,0.5],[1,0.5]];portConstraint=eastwest;top=0;left=0;right=0;bottom=0;" parent="HxpxRqRVrvvPyobryTdf-74" vertex="1">
          <mxGeometry y="60" width="246" height="30" as="geometry" />
        </mxCell>
        <mxCell id="HxpxRqRVrvvPyobryTdf-79" value="" style="shape=partialRectangle;connectable=0;fillColor=none;top=0;left=0;bottom=0;right=0;editable=1;overflow=hidden;whiteSpace=wrap;html=1;" parent="HxpxRqRVrvvPyobryTdf-78" vertex="1">
          <mxGeometry width="30" height="30" as="geometry">
            <mxRectangle width="30" height="30" as="alternateBounds" />
          </mxGeometry>
        </mxCell>
        <mxCell id="HxpxRqRVrvvPyobryTdf-80" value="&lt;span style=&quot;font-size: 15px;&quot;&gt;タスク名　char&lt;/span&gt;" style="shape=partialRectangle;connectable=0;fillColor=none;top=0;left=0;bottom=0;right=0;align=left;spacingLeft=6;overflow=hidden;whiteSpace=wrap;html=1;" parent="HxpxRqRVrvvPyobryTdf-78" vertex="1">
          <mxGeometry x="30" width="216" height="30" as="geometry">
            <mxRectangle width="216" height="30" as="alternateBounds" />
          </mxGeometry>
        </mxCell>
        <mxCell id="HxpxRqRVrvvPyobryTdf-108" value="" style="shape=tableRow;horizontal=0;startSize=0;swimlaneHead=0;swimlaneBody=0;fillColor=none;collapsible=0;dropTarget=0;points=[[0,0.5],[1,0.5]];portConstraint=eastwest;top=0;left=0;right=0;bottom=0;" parent="HxpxRqRVrvvPyobryTdf-74" vertex="1">
          <mxGeometry y="90" width="246" height="30" as="geometry" />
        </mxCell>
        <mxCell id="HxpxRqRVrvvPyobryTdf-109" value="" style="shape=partialRectangle;connectable=0;fillColor=none;top=0;left=0;bottom=0;right=0;editable=1;overflow=hidden;whiteSpace=wrap;html=1;" parent="HxpxRqRVrvvPyobryTdf-108" vertex="1">
          <mxGeometry width="30" height="30" as="geometry">
            <mxRectangle width="30" height="30" as="alternateBounds" />
          </mxGeometry>
        </mxCell>
        <mxCell id="HxpxRqRVrvvPyobryTdf-110" value="&lt;span style=&quot;font-size: 15px;&quot;&gt;タスク詳細　char&lt;/span&gt;" style="shape=partialRectangle;connectable=0;fillColor=none;top=0;left=0;bottom=0;right=0;align=left;spacingLeft=6;overflow=hidden;whiteSpace=wrap;html=1;" parent="HxpxRqRVrvvPyobryTdf-108" vertex="1">
          <mxGeometry x="30" width="216" height="30" as="geometry">
            <mxRectangle width="216" height="30" as="alternateBounds" />
          </mxGeometry>
        </mxCell>
        <mxCell id="HxpxRqRVrvvPyobryTdf-81" value="" style="shape=tableRow;horizontal=0;startSize=0;swimlaneHead=0;swimlaneBody=0;fillColor=none;collapsible=0;dropTarget=0;points=[[0,0.5],[1,0.5]];portConstraint=eastwest;top=0;left=0;right=0;bottom=0;" parent="HxpxRqRVrvvPyobryTdf-74" vertex="1">
          <mxGeometry y="120" width="246" height="30" as="geometry" />
        </mxCell>
        <mxCell id="HxpxRqRVrvvPyobryTdf-82" value="" style="shape=partialRectangle;connectable=0;fillColor=none;top=0;left=0;bottom=0;right=0;editable=1;overflow=hidden;whiteSpace=wrap;html=1;" parent="HxpxRqRVrvvPyobryTdf-81" vertex="1">
          <mxGeometry width="30" height="30" as="geometry">
            <mxRectangle width="30" height="30" as="alternateBounds" />
          </mxGeometry>
        </mxCell>
        <mxCell id="HxpxRqRVrvvPyobryTdf-83" value="&lt;span style=&quot;font-size: 15px;&quot;&gt;ステータス int (1:未着手, ...)&lt;/span&gt;" style="shape=partialRectangle;connectable=0;fillColor=none;top=0;left=0;bottom=0;right=0;align=left;spacingLeft=6;overflow=hidden;whiteSpace=wrap;html=1;" parent="HxpxRqRVrvvPyobryTdf-81" vertex="1">
          <mxGeometry x="30" width="216" height="30" as="geometry">
            <mxRectangle width="216" height="30" as="alternateBounds" />
          </mxGeometry>
        </mxCell>
        <mxCell id="HxpxRqRVrvvPyobryTdf-84" value="" style="shape=tableRow;horizontal=0;startSize=0;swimlaneHead=0;swimlaneBody=0;fillColor=none;collapsible=0;dropTarget=0;points=[[0,0.5],[1,0.5]];portConstraint=eastwest;top=0;left=0;right=0;bottom=0;" parent="HxpxRqRVrvvPyobryTdf-74" vertex="1">
          <mxGeometry y="150" width="246" height="30" as="geometry" />
        </mxCell>
        <mxCell id="HxpxRqRVrvvPyobryTdf-85" value="" style="shape=partialRectangle;connectable=0;fillColor=none;top=0;left=0;bottom=0;right=0;editable=1;overflow=hidden;whiteSpace=wrap;html=1;" parent="HxpxRqRVrvvPyobryTdf-84" vertex="1">
          <mxGeometry width="30" height="30" as="geometry">
            <mxRectangle width="30" height="30" as="alternateBounds" />
          </mxGeometry>
        </mxCell>
        <mxCell id="HxpxRqRVrvvPyobryTdf-86" value="&lt;span style=&quot;font-size: 15px;&quot;&gt;ドキュメンURL url&lt;/span&gt;" style="shape=partialRectangle;connectable=0;fillColor=none;top=0;left=0;bottom=0;right=0;align=left;spacingLeft=6;overflow=hidden;whiteSpace=wrap;html=1;" parent="HxpxRqRVrvvPyobryTdf-84" vertex="1">
          <mxGeometry x="30" width="216" height="30" as="geometry">
            <mxRectangle width="216" height="30" as="alternateBounds" />
          </mxGeometry>
        </mxCell>
        <mxCell id="HxpxRqRVrvvPyobryTdf-87" value="&lt;span style=&quot;font-size: 15px;&quot;&gt;アサイン管理 Table&lt;/span&gt;" style="shape=table;startSize=30;container=1;collapsible=1;childLayout=tableLayout;fixedRows=1;rowLines=0;fontStyle=1;align=center;resizeLast=1;html=1;" parent="1" vertex="1">
          <mxGeometry x="410" y="375" width="246" height="120" as="geometry" />
        </mxCell>
        <mxCell id="HxpxRqRVrvvPyobryTdf-88" value="" style="shape=tableRow;horizontal=0;startSize=0;swimlaneHead=0;swimlaneBody=0;fillColor=none;collapsible=0;dropTarget=0;points=[[0,0.5],[1,0.5]];portConstraint=eastwest;top=0;left=0;right=0;bottom=1;" parent="HxpxRqRVrvvPyobryTdf-87" vertex="1">
          <mxGeometry y="30" width="246" height="30" as="geometry" />
        </mxCell>
        <mxCell id="HxpxRqRVrvvPyobryTdf-89" value="&lt;font style=&quot;font-size: 15px;&quot;&gt;PK&lt;/font&gt;" style="shape=partialRectangle;connectable=0;fillColor=none;top=0;left=0;bottom=0;right=0;fontStyle=1;overflow=hidden;whiteSpace=wrap;html=1;" parent="HxpxRqRVrvvPyobryTdf-88" vertex="1">
          <mxGeometry width="30" height="30" as="geometry">
            <mxRectangle width="30" height="30" as="alternateBounds" />
          </mxGeometry>
        </mxCell>
        <mxCell id="HxpxRqRVrvvPyobryTdf-90" value="&lt;font style=&quot;font-size: 15px;&quot;&gt;アサイン管理ID&lt;/font&gt;" style="shape=partialRectangle;connectable=0;fillColor=none;top=0;left=0;bottom=0;right=0;align=left;spacingLeft=6;fontStyle=5;overflow=hidden;whiteSpace=wrap;html=1;" parent="HxpxRqRVrvvPyobryTdf-88" vertex="1">
          <mxGeometry x="30" width="216" height="30" as="geometry">
            <mxRectangle width="216" height="30" as="alternateBounds" />
          </mxGeometry>
        </mxCell>
        <mxCell id="HxpxRqRVrvvPyobryTdf-91" value="" style="shape=tableRow;horizontal=0;startSize=0;swimlaneHead=0;swimlaneBody=0;fillColor=none;collapsible=0;dropTarget=0;points=[[0,0.5],[1,0.5]];portConstraint=eastwest;top=0;left=0;right=0;bottom=0;" parent="HxpxRqRVrvvPyobryTdf-87" vertex="1">
          <mxGeometry y="60" width="246" height="30" as="geometry" />
        </mxCell>
        <mxCell id="HxpxRqRVrvvPyobryTdf-92" value="" style="shape=partialRectangle;connectable=0;fillColor=none;top=0;left=0;bottom=0;right=0;editable=1;overflow=hidden;whiteSpace=wrap;html=1;" parent="HxpxRqRVrvvPyobryTdf-91" vertex="1">
          <mxGeometry width="30" height="30" as="geometry">
            <mxRectangle width="30" height="30" as="alternateBounds" />
          </mxGeometry>
        </mxCell>
        <mxCell id="HxpxRqRVrvvPyobryTdf-93" value="&lt;span style=&quot;font-size: 15px;&quot;&gt;プロジェクトID　(FK)&lt;/span&gt;" style="shape=partialRectangle;connectable=0;fillColor=none;top=0;left=0;bottom=0;right=0;align=left;spacingLeft=6;overflow=hidden;whiteSpace=wrap;html=1;" parent="HxpxRqRVrvvPyobryTdf-91" vertex="1">
          <mxGeometry x="30" width="216" height="30" as="geometry">
            <mxRectangle width="216" height="30" as="alternateBounds" />
          </mxGeometry>
        </mxCell>
        <mxCell id="HxpxRqRVrvvPyobryTdf-94" value="" style="shape=tableRow;horizontal=0;startSize=0;swimlaneHead=0;swimlaneBody=0;fillColor=none;collapsible=0;dropTarget=0;points=[[0,0.5],[1,0.5]];portConstraint=eastwest;top=0;left=0;right=0;bottom=0;" parent="HxpxRqRVrvvPyobryTdf-87" vertex="1">
          <mxGeometry y="90" width="246" height="30" as="geometry" />
        </mxCell>
        <mxCell id="HxpxRqRVrvvPyobryTdf-95" value="" style="shape=partialRectangle;connectable=0;fillColor=none;top=0;left=0;bottom=0;right=0;editable=1;overflow=hidden;whiteSpace=wrap;html=1;" parent="HxpxRqRVrvvPyobryTdf-94" vertex="1">
          <mxGeometry width="30" height="30" as="geometry">
            <mxRectangle width="30" height="30" as="alternateBounds" />
          </mxGeometry>
        </mxCell>
        <mxCell id="HxpxRqRVrvvPyobryTdf-96" value="&lt;span style=&quot;font-size: 15px;&quot;&gt;社員ID　(FK)&lt;br&gt;&lt;/span&gt;" style="shape=partialRectangle;connectable=0;fillColor=none;top=0;left=0;bottom=0;right=0;align=left;spacingLeft=6;overflow=hidden;whiteSpace=wrap;html=1;" parent="HxpxRqRVrvvPyobryTdf-94" vertex="1">
          <mxGeometry x="30" width="216" height="30" as="geometry">
            <mxRectangle width="216" height="30" as="alternateBounds" />
          </mxGeometry>
        </mxCell>
        <mxCell id="HxpxRqRVrvvPyobryTdf-114" style="edgeStyle=orthogonalEdgeStyle;rounded=0;orthogonalLoop=1;jettySize=auto;html=1;strokeWidth=2;strokeColor=#FFB570;endSize=15;endArrow=ERmany;endFill=0;" parent="1" source="HxpxRqRVrvvPyobryTdf-102" target="HxpxRqRVrvvPyobryTdf-74" edge="1">
          <mxGeometry relative="1" as="geometry" />
        </mxCell>
        <mxCell id="HxpxRqRVrvvPyobryTdf-115" style="edgeStyle=orthogonalEdgeStyle;rounded=0;orthogonalLoop=1;jettySize=auto;html=1;entryX=0;entryY=0.5;entryDx=0;entryDy=0;endSize=15;strokeWidth=2;endArrow=ERmany;endFill=0;strokeColor=#FFB570;" parent="1" source="HxpxRqRVrvvPyobryTdf-54" target="HxpxRqRVrvvPyobryTdf-75" edge="1">
          <mxGeometry relative="1" as="geometry" />
        </mxCell>
        <mxCell id="HxpxRqRVrvvPyobryTdf-145" style="edgeStyle=orthogonalEdgeStyle;rounded=0;orthogonalLoop=1;jettySize=auto;html=1;strokeWidth=2;strokeColor=#FFB570;endSize=15;endArrow=ERmany;endFill=0;" parent="1" source="HxpxRqRVrvvPyobryTdf-116" target="HxpxRqRVrvvPyobryTdf-135" edge="1">
          <mxGeometry relative="1" as="geometry" />
        </mxCell>
        <mxCell id="HxpxRqRVrvvPyobryTdf-116" value="&lt;span style=&quot;font-size: 15px;&quot;&gt;社員 Mst&lt;/span&gt;" style="shape=table;startSize=30;container=1;collapsible=1;childLayout=tableLayout;fixedRows=1;rowLines=0;fontStyle=1;align=center;resizeLast=1;html=1;" parent="1" vertex="1">
          <mxGeometry x="736" y="340" width="246" height="190" as="geometry" />
        </mxCell>
        <mxCell id="HxpxRqRVrvvPyobryTdf-117" value="" style="shape=tableRow;horizontal=0;startSize=0;swimlaneHead=0;swimlaneBody=0;fillColor=none;collapsible=0;dropTarget=0;points=[[0,0.5],[1,0.5]];portConstraint=eastwest;top=0;left=0;right=0;bottom=1;" parent="HxpxRqRVrvvPyobryTdf-116" vertex="1">
          <mxGeometry y="30" width="246" height="30" as="geometry" />
        </mxCell>
        <mxCell id="HxpxRqRVrvvPyobryTdf-118" value="&lt;font style=&quot;font-size: 15px;&quot;&gt;PK&lt;/font&gt;" style="shape=partialRectangle;connectable=0;fillColor=none;top=0;left=0;bottom=0;right=0;fontStyle=1;overflow=hidden;whiteSpace=wrap;html=1;" parent="HxpxRqRVrvvPyobryTdf-117" vertex="1">
          <mxGeometry width="30" height="30" as="geometry">
            <mxRectangle width="30" height="30" as="alternateBounds" />
          </mxGeometry>
        </mxCell>
        <mxCell id="HxpxRqRVrvvPyobryTdf-119" value="&lt;font style=&quot;font-size: 15px;&quot;&gt;社員ID&lt;/font&gt;" style="shape=partialRectangle;connectable=0;fillColor=none;top=0;left=0;bottom=0;right=0;align=left;spacingLeft=6;fontStyle=5;overflow=hidden;whiteSpace=wrap;html=1;" parent="HxpxRqRVrvvPyobryTdf-117" vertex="1">
          <mxGeometry x="30" width="216" height="30" as="geometry">
            <mxRectangle width="216" height="30" as="alternateBounds" />
          </mxGeometry>
        </mxCell>
        <mxCell id="HxpxRqRVrvvPyobryTdf-120" value="" style="shape=tableRow;horizontal=0;startSize=0;swimlaneHead=0;swimlaneBody=0;fillColor=none;collapsible=0;dropTarget=0;points=[[0,0.5],[1,0.5]];portConstraint=eastwest;top=0;left=0;right=0;bottom=0;" parent="HxpxRqRVrvvPyobryTdf-116" vertex="1">
          <mxGeometry y="60" width="246" height="30" as="geometry" />
        </mxCell>
        <mxCell id="HxpxRqRVrvvPyobryTdf-121" value="" style="shape=partialRectangle;connectable=0;fillColor=none;top=0;left=0;bottom=0;right=0;editable=1;overflow=hidden;whiteSpace=wrap;html=1;" parent="HxpxRqRVrvvPyobryTdf-120" vertex="1">
          <mxGeometry width="30" height="30" as="geometry">
            <mxRectangle width="30" height="30" as="alternateBounds" />
          </mxGeometry>
        </mxCell>
        <mxCell id="HxpxRqRVrvvPyobryTdf-122" value="&lt;span style=&quot;font-size: 15px;&quot;&gt;氏名　char&lt;/span&gt;" style="shape=partialRectangle;connectable=0;fillColor=none;top=0;left=0;bottom=0;right=0;align=left;spacingLeft=6;overflow=hidden;whiteSpace=wrap;html=1;" parent="HxpxRqRVrvvPyobryTdf-120" vertex="1">
          <mxGeometry x="30" width="216" height="30" as="geometry">
            <mxRectangle width="216" height="30" as="alternateBounds" />
          </mxGeometry>
        </mxCell>
        <mxCell id="HxpxRqRVrvvPyobryTdf-123" value="" style="shape=tableRow;horizontal=0;startSize=0;swimlaneHead=0;swimlaneBody=0;fillColor=none;collapsible=0;dropTarget=0;points=[[0,0.5],[1,0.5]];portConstraint=eastwest;top=0;left=0;right=0;bottom=0;" parent="HxpxRqRVrvvPyobryTdf-116" vertex="1">
          <mxGeometry y="90" width="246" height="30" as="geometry" />
        </mxCell>
        <mxCell id="HxpxRqRVrvvPyobryTdf-124" value="" style="shape=partialRectangle;connectable=0;fillColor=none;top=0;left=0;bottom=0;right=0;editable=1;overflow=hidden;whiteSpace=wrap;html=1;" parent="HxpxRqRVrvvPyobryTdf-123" vertex="1">
          <mxGeometry width="30" height="30" as="geometry">
            <mxRectangle width="30" height="30" as="alternateBounds" />
          </mxGeometry>
        </mxCell>
        <mxCell id="HxpxRqRVrvvPyobryTdf-125" value="&lt;span style=&quot;font-size: 15px;&quot;&gt;Email　email&lt;/span&gt;" style="shape=partialRectangle;connectable=0;fillColor=none;top=0;left=0;bottom=0;right=0;align=left;spacingLeft=6;overflow=hidden;whiteSpace=wrap;html=1;" parent="HxpxRqRVrvvPyobryTdf-123" vertex="1">
          <mxGeometry x="30" width="216" height="30" as="geometry">
            <mxRectangle width="216" height="30" as="alternateBounds" />
          </mxGeometry>
        </mxCell>
        <mxCell id="HxpxRqRVrvvPyobryTdf-126" value="" style="shape=tableRow;horizontal=0;startSize=0;swimlaneHead=0;swimlaneBody=0;fillColor=none;collapsible=0;dropTarget=0;points=[[0,0.5],[1,0.5]];portConstraint=eastwest;top=0;left=0;right=0;bottom=0;" parent="HxpxRqRVrvvPyobryTdf-116" vertex="1">
          <mxGeometry y="120" width="246" height="30" as="geometry" />
        </mxCell>
        <mxCell id="HxpxRqRVrvvPyobryTdf-127" value="" style="shape=partialRectangle;connectable=0;fillColor=none;top=0;left=0;bottom=0;right=0;editable=1;overflow=hidden;whiteSpace=wrap;html=1;" parent="HxpxRqRVrvvPyobryTdf-126" vertex="1">
          <mxGeometry width="30" height="30" as="geometry">
            <mxRectangle width="30" height="30" as="alternateBounds" />
          </mxGeometry>
        </mxCell>
        <mxCell id="HxpxRqRVrvvPyobryTdf-128" value="&lt;span style=&quot;font-size: 15px;&quot;&gt;Passward　char&lt;/span&gt;" style="shape=partialRectangle;connectable=0;fillColor=none;top=0;left=0;bottom=0;right=0;align=left;spacingLeft=6;overflow=hidden;whiteSpace=wrap;html=1;" parent="HxpxRqRVrvvPyobryTdf-126" vertex="1">
          <mxGeometry x="30" width="216" height="30" as="geometry">
            <mxRectangle width="216" height="30" as="alternateBounds" />
          </mxGeometry>
        </mxCell>
        <mxCell id="HxpxRqRVrvvPyobryTdf-129" value="" style="shape=tableRow;horizontal=0;startSize=0;swimlaneHead=0;swimlaneBody=0;fillColor=none;collapsible=0;dropTarget=0;points=[[0,0.5],[1,0.5]];portConstraint=eastwest;top=0;left=0;right=0;bottom=0;" parent="HxpxRqRVrvvPyobryTdf-116" vertex="1">
          <mxGeometry y="150" width="246" height="30" as="geometry" />
        </mxCell>
        <mxCell id="HxpxRqRVrvvPyobryTdf-130" value="" style="shape=partialRectangle;connectable=0;fillColor=none;top=0;left=0;bottom=0;right=0;editable=1;overflow=hidden;whiteSpace=wrap;html=1;" parent="HxpxRqRVrvvPyobryTdf-129" vertex="1">
          <mxGeometry width="30" height="30" as="geometry">
            <mxRectangle width="30" height="30" as="alternateBounds" />
          </mxGeometry>
        </mxCell>
        <mxCell id="HxpxRqRVrvvPyobryTdf-131" value="&lt;span style=&quot;font-size: 15px;&quot;&gt;役割　int (1:SE, 2:PG)&lt;/span&gt;" style="shape=partialRectangle;connectable=0;fillColor=none;top=0;left=0;bottom=0;right=0;align=left;spacingLeft=6;overflow=hidden;whiteSpace=wrap;html=1;" parent="HxpxRqRVrvvPyobryTdf-129" vertex="1">
          <mxGeometry x="30" width="216" height="30" as="geometry">
            <mxRectangle width="216" height="30" as="alternateBounds" />
          </mxGeometry>
        </mxCell>
        <mxCell id="HxpxRqRVrvvPyobryTdf-134" style="edgeStyle=orthogonalEdgeStyle;rounded=0;orthogonalLoop=1;jettySize=auto;html=1;strokeWidth=2;strokeColor=#FFB570;endSize=15;endArrow=ERmany;endFill=0;" parent="1" source="HxpxRqRVrvvPyobryTdf-116" target="HxpxRqRVrvvPyobryTdf-87" edge="1">
          <mxGeometry relative="1" as="geometry" />
        </mxCell>
        <mxCell id="HxpxRqRVrvvPyobryTdf-135" value="&lt;span style=&quot;font-size: 15px;&quot;&gt;タスク割り当て管理 Table&lt;/span&gt;" style="shape=table;startSize=30;container=1;collapsible=1;childLayout=tableLayout;fixedRows=1;rowLines=0;fontStyle=1;align=center;resizeLast=1;html=1;" parent="1" vertex="1">
          <mxGeometry x="736" y="600" width="246" height="120" as="geometry" />
        </mxCell>
        <mxCell id="HxpxRqRVrvvPyobryTdf-136" value="" style="shape=tableRow;horizontal=0;startSize=0;swimlaneHead=0;swimlaneBody=0;fillColor=none;collapsible=0;dropTarget=0;points=[[0,0.5],[1,0.5]];portConstraint=eastwest;top=0;left=0;right=0;bottom=1;" parent="HxpxRqRVrvvPyobryTdf-135" vertex="1">
          <mxGeometry y="30" width="246" height="30" as="geometry" />
        </mxCell>
        <mxCell id="HxpxRqRVrvvPyobryTdf-137" value="&lt;font style=&quot;font-size: 15px;&quot;&gt;PK&lt;/font&gt;" style="shape=partialRectangle;connectable=0;fillColor=none;top=0;left=0;bottom=0;right=0;fontStyle=1;overflow=hidden;whiteSpace=wrap;html=1;" parent="HxpxRqRVrvvPyobryTdf-136" vertex="1">
          <mxGeometry width="30" height="30" as="geometry">
            <mxRectangle width="30" height="30" as="alternateBounds" />
          </mxGeometry>
        </mxCell>
        <mxCell id="HxpxRqRVrvvPyobryTdf-138" value="&lt;font style=&quot;font-size: 15px;&quot;&gt;タスク割り当てID&lt;/font&gt;" style="shape=partialRectangle;connectable=0;fillColor=none;top=0;left=0;bottom=0;right=0;align=left;spacingLeft=6;fontStyle=5;overflow=hidden;whiteSpace=wrap;html=1;" parent="HxpxRqRVrvvPyobryTdf-136" vertex="1">
          <mxGeometry x="30" width="216" height="30" as="geometry">
            <mxRectangle width="216" height="30" as="alternateBounds" />
          </mxGeometry>
        </mxCell>
        <mxCell id="HxpxRqRVrvvPyobryTdf-139" value="" style="shape=tableRow;horizontal=0;startSize=0;swimlaneHead=0;swimlaneBody=0;fillColor=none;collapsible=0;dropTarget=0;points=[[0,0.5],[1,0.5]];portConstraint=eastwest;top=0;left=0;right=0;bottom=0;" parent="HxpxRqRVrvvPyobryTdf-135" vertex="1">
          <mxGeometry y="60" width="246" height="30" as="geometry" />
        </mxCell>
        <mxCell id="HxpxRqRVrvvPyobryTdf-140" value="" style="shape=partialRectangle;connectable=0;fillColor=none;top=0;left=0;bottom=0;right=0;editable=1;overflow=hidden;whiteSpace=wrap;html=1;" parent="HxpxRqRVrvvPyobryTdf-139" vertex="1">
          <mxGeometry width="30" height="30" as="geometry">
            <mxRectangle width="30" height="30" as="alternateBounds" />
          </mxGeometry>
        </mxCell>
        <mxCell id="HxpxRqRVrvvPyobryTdf-141" value="&lt;span style=&quot;font-size: 15px;&quot;&gt;タスクID　(FK)&lt;/span&gt;" style="shape=partialRectangle;connectable=0;fillColor=none;top=0;left=0;bottom=0;right=0;align=left;spacingLeft=6;overflow=hidden;whiteSpace=wrap;html=1;" parent="HxpxRqRVrvvPyobryTdf-139" vertex="1">
          <mxGeometry x="30" width="216" height="30" as="geometry">
            <mxRectangle width="216" height="30" as="alternateBounds" />
          </mxGeometry>
        </mxCell>
        <mxCell id="HxpxRqRVrvvPyobryTdf-142" value="" style="shape=tableRow;horizontal=0;startSize=0;swimlaneHead=0;swimlaneBody=0;fillColor=none;collapsible=0;dropTarget=0;points=[[0,0.5],[1,0.5]];portConstraint=eastwest;top=0;left=0;right=0;bottom=0;" parent="HxpxRqRVrvvPyobryTdf-135" vertex="1">
          <mxGeometry y="90" width="246" height="30" as="geometry" />
        </mxCell>
        <mxCell id="HxpxRqRVrvvPyobryTdf-143" value="" style="shape=partialRectangle;connectable=0;fillColor=none;top=0;left=0;bottom=0;right=0;editable=1;overflow=hidden;whiteSpace=wrap;html=1;" parent="HxpxRqRVrvvPyobryTdf-142" vertex="1">
          <mxGeometry width="30" height="30" as="geometry">
            <mxRectangle width="30" height="30" as="alternateBounds" />
          </mxGeometry>
        </mxCell>
        <mxCell id="HxpxRqRVrvvPyobryTdf-144" value="&lt;span style=&quot;font-size: 15px;&quot;&gt;社員ID　(FK)&lt;br&gt;&lt;/span&gt;" style="shape=partialRectangle;connectable=0;fillColor=none;top=0;left=0;bottom=0;right=0;align=left;spacingLeft=6;overflow=hidden;whiteSpace=wrap;html=1;" parent="HxpxRqRVrvvPyobryTdf-142" vertex="1">
          <mxGeometry x="30" width="216" height="30" as="geometry">
            <mxRectangle width="216" height="30" as="alternateBounds" />
          </mxGeometry>
        </mxCell>
        <mxCell id="HxpxRqRVrvvPyobryTdf-146" style="edgeStyle=orthogonalEdgeStyle;rounded=0;orthogonalLoop=1;jettySize=auto;html=1;endArrow=none;endFill=0;strokeWidth=2;strokeColor=#FFB570;" parent="1" source="HxpxRqRVrvvPyobryTdf-78" target="HxpxRqRVrvvPyobryTdf-135" edge="1">
          <mxGeometry relative="1" as="geometry" />
        </mxCell>
        <mxCell id="aaeVy9RQNNlQTV8ZLGuT-54" style="edgeStyle=orthogonalEdgeStyle;rounded=0;orthogonalLoop=1;jettySize=auto;html=1;strokeWidth=2;strokeColor=#FFB570;jumpSize=6;endArrow=ERmany;endFill=0;endSize=15;" parent="1" source="HxpxRqRVrvvPyobryTdf-147" target="HxpxRqRVrvvPyobryTdf-219" edge="1">
          <mxGeometry relative="1" as="geometry" />
        </mxCell>
        <mxCell id="HxpxRqRVrvvPyobryTdf-147" value="&lt;span style=&quot;font-size: 15px;&quot;&gt;返信　Table&lt;/span&gt;" style="shape=table;startSize=30;container=1;collapsible=1;childLayout=tableLayout;fixedRows=1;rowLines=0;fontStyle=1;align=center;resizeLast=1;html=1;" parent="1" vertex="1">
          <mxGeometry x="1040" y="858.5" width="246" height="205" as="geometry" />
        </mxCell>
        <mxCell id="HxpxRqRVrvvPyobryTdf-148" value="" style="shape=tableRow;horizontal=0;startSize=0;swimlaneHead=0;swimlaneBody=0;fillColor=none;collapsible=0;dropTarget=0;points=[[0,0.5],[1,0.5]];portConstraint=eastwest;top=0;left=0;right=0;bottom=1;" parent="HxpxRqRVrvvPyobryTdf-147" vertex="1">
          <mxGeometry y="30" width="246" height="30" as="geometry" />
        </mxCell>
        <mxCell id="HxpxRqRVrvvPyobryTdf-149" value="&lt;font style=&quot;font-size: 15px;&quot;&gt;PK&lt;/font&gt;" style="shape=partialRectangle;connectable=0;fillColor=none;top=0;left=0;bottom=0;right=0;fontStyle=1;overflow=hidden;whiteSpace=wrap;html=1;" parent="HxpxRqRVrvvPyobryTdf-148" vertex="1">
          <mxGeometry width="30" height="30" as="geometry">
            <mxRectangle width="30" height="30" as="alternateBounds" />
          </mxGeometry>
        </mxCell>
        <mxCell id="HxpxRqRVrvvPyobryTdf-150" value="&lt;font style=&quot;font-size: 15px;&quot;&gt;返信ID&lt;/font&gt;" style="shape=partialRectangle;connectable=0;fillColor=none;top=0;left=0;bottom=0;right=0;align=left;spacingLeft=6;fontStyle=5;overflow=hidden;whiteSpace=wrap;html=1;" parent="HxpxRqRVrvvPyobryTdf-148" vertex="1">
          <mxGeometry x="30" width="216" height="30" as="geometry">
            <mxRectangle width="216" height="30" as="alternateBounds" />
          </mxGeometry>
        </mxCell>
        <mxCell id="HxpxRqRVrvvPyobryTdf-216" value="" style="shape=tableRow;horizontal=0;startSize=0;swimlaneHead=0;swimlaneBody=0;fillColor=none;collapsible=0;dropTarget=0;points=[[0,0.5],[1,0.5]];portConstraint=eastwest;top=0;left=0;right=0;bottom=0;" parent="HxpxRqRVrvvPyobryTdf-147" vertex="1">
          <mxGeometry y="60" width="246" height="30" as="geometry" />
        </mxCell>
        <mxCell id="HxpxRqRVrvvPyobryTdf-217" value="" style="shape=partialRectangle;connectable=0;fillColor=none;top=0;left=0;bottom=0;right=0;editable=1;overflow=hidden;whiteSpace=wrap;html=1;" parent="HxpxRqRVrvvPyobryTdf-216" vertex="1">
          <mxGeometry width="30" height="30" as="geometry">
            <mxRectangle width="30" height="30" as="alternateBounds" />
          </mxGeometry>
        </mxCell>
        <mxCell id="HxpxRqRVrvvPyobryTdf-218" value="&lt;span style=&quot;font-size: 15px;&quot;&gt;スレッドID（FK）&lt;br&gt;&lt;/span&gt;" style="shape=partialRectangle;connectable=0;fillColor=none;top=0;left=0;bottom=0;right=0;align=left;spacingLeft=6;overflow=hidden;whiteSpace=wrap;html=1;" parent="HxpxRqRVrvvPyobryTdf-216" vertex="1">
          <mxGeometry x="30" width="216" height="30" as="geometry">
            <mxRectangle width="216" height="30" as="alternateBounds" />
          </mxGeometry>
        </mxCell>
        <mxCell id="HxpxRqRVrvvPyobryTdf-154" value="" style="shape=tableRow;horizontal=0;startSize=0;swimlaneHead=0;swimlaneBody=0;fillColor=none;collapsible=0;dropTarget=0;points=[[0,0.5],[1,0.5]];portConstraint=eastwest;top=0;left=0;right=0;bottom=0;" parent="HxpxRqRVrvvPyobryTdf-147" vertex="1">
          <mxGeometry y="90" width="246" height="30" as="geometry" />
        </mxCell>
        <mxCell id="HxpxRqRVrvvPyobryTdf-155" value="" style="shape=partialRectangle;connectable=0;fillColor=none;top=0;left=0;bottom=0;right=0;editable=1;overflow=hidden;whiteSpace=wrap;html=1;" parent="HxpxRqRVrvvPyobryTdf-154" vertex="1">
          <mxGeometry width="30" height="30" as="geometry">
            <mxRectangle width="30" height="30" as="alternateBounds" />
          </mxGeometry>
        </mxCell>
        <mxCell id="HxpxRqRVrvvPyobryTdf-156" value="&lt;span style=&quot;font-size: 15px;&quot;&gt;投稿者_社員ID（FK）&lt;br&gt;&lt;/span&gt;" style="shape=partialRectangle;connectable=0;fillColor=none;top=0;left=0;bottom=0;right=0;align=left;spacingLeft=6;overflow=hidden;whiteSpace=wrap;html=1;" parent="HxpxRqRVrvvPyobryTdf-154" vertex="1">
          <mxGeometry x="30" width="216" height="30" as="geometry">
            <mxRectangle width="216" height="30" as="alternateBounds" />
          </mxGeometry>
        </mxCell>
        <mxCell id="HxpxRqRVrvvPyobryTdf-179" value="" style="shape=tableRow;horizontal=0;startSize=0;swimlaneHead=0;swimlaneBody=0;fillColor=none;collapsible=0;dropTarget=0;points=[[0,0.5],[1,0.5]];portConstraint=eastwest;top=0;left=0;right=0;bottom=0;" parent="HxpxRqRVrvvPyobryTdf-147" vertex="1">
          <mxGeometry y="120" width="246" height="25" as="geometry" />
        </mxCell>
        <mxCell id="HxpxRqRVrvvPyobryTdf-180" value="" style="shape=partialRectangle;connectable=0;fillColor=none;top=0;left=0;bottom=0;right=0;editable=1;overflow=hidden;whiteSpace=wrap;html=1;" parent="HxpxRqRVrvvPyobryTdf-179" vertex="1">
          <mxGeometry width="30" height="25" as="geometry">
            <mxRectangle width="30" height="25" as="alternateBounds" />
          </mxGeometry>
        </mxCell>
        <mxCell id="HxpxRqRVrvvPyobryTdf-181" value="&lt;span style=&quot;font-size: 15px;&quot;&gt;宛先_社員ID（FK）&lt;/span&gt;" style="shape=partialRectangle;connectable=0;fillColor=none;top=0;left=0;bottom=0;right=0;align=left;spacingLeft=6;overflow=hidden;whiteSpace=wrap;html=1;" parent="HxpxRqRVrvvPyobryTdf-179" vertex="1">
          <mxGeometry x="30" width="216" height="25" as="geometry">
            <mxRectangle width="216" height="25" as="alternateBounds" />
          </mxGeometry>
        </mxCell>
        <mxCell id="HxpxRqRVrvvPyobryTdf-151" value="" style="shape=tableRow;horizontal=0;startSize=0;swimlaneHead=0;swimlaneBody=0;fillColor=none;collapsible=0;dropTarget=0;points=[[0,0.5],[1,0.5]];portConstraint=eastwest;top=0;left=0;right=0;bottom=0;" parent="HxpxRqRVrvvPyobryTdf-147" vertex="1">
          <mxGeometry y="145" width="246" height="30" as="geometry" />
        </mxCell>
        <mxCell id="HxpxRqRVrvvPyobryTdf-152" value="" style="shape=partialRectangle;connectable=0;fillColor=none;top=0;left=0;bottom=0;right=0;editable=1;overflow=hidden;whiteSpace=wrap;html=1;" parent="HxpxRqRVrvvPyobryTdf-151" vertex="1">
          <mxGeometry width="30" height="30" as="geometry">
            <mxRectangle width="30" height="30" as="alternateBounds" />
          </mxGeometry>
        </mxCell>
        <mxCell id="HxpxRqRVrvvPyobryTdf-153" value="&lt;span style=&quot;font-size: 15px;&quot;&gt;返信日時&lt;/span&gt;" style="shape=partialRectangle;connectable=0;fillColor=none;top=0;left=0;bottom=0;right=0;align=left;spacingLeft=6;overflow=hidden;whiteSpace=wrap;html=1;" parent="HxpxRqRVrvvPyobryTdf-151" vertex="1">
          <mxGeometry x="30" width="216" height="30" as="geometry">
            <mxRectangle width="216" height="30" as="alternateBounds" />
          </mxGeometry>
        </mxCell>
        <mxCell id="HxpxRqRVrvvPyobryTdf-182" value="" style="shape=tableRow;horizontal=0;startSize=0;swimlaneHead=0;swimlaneBody=0;fillColor=none;collapsible=0;dropTarget=0;points=[[0,0.5],[1,0.5]];portConstraint=eastwest;top=0;left=0;right=0;bottom=0;" parent="HxpxRqRVrvvPyobryTdf-147" vertex="1">
          <mxGeometry y="175" width="246" height="30" as="geometry" />
        </mxCell>
        <mxCell id="HxpxRqRVrvvPyobryTdf-183" value="" style="shape=partialRectangle;connectable=0;fillColor=none;top=0;left=0;bottom=0;right=0;editable=1;overflow=hidden;whiteSpace=wrap;html=1;" parent="HxpxRqRVrvvPyobryTdf-182" vertex="1">
          <mxGeometry width="30" height="30" as="geometry">
            <mxRectangle width="30" height="30" as="alternateBounds" />
          </mxGeometry>
        </mxCell>
        <mxCell id="HxpxRqRVrvvPyobryTdf-184" value="&lt;span style=&quot;font-size: 15px;&quot;&gt;本文&lt;/span&gt;" style="shape=partialRectangle;connectable=0;fillColor=none;top=0;left=0;bottom=0;right=0;align=left;spacingLeft=6;overflow=hidden;whiteSpace=wrap;html=1;" parent="HxpxRqRVrvvPyobryTdf-182" vertex="1">
          <mxGeometry x="30" width="216" height="30" as="geometry">
            <mxRectangle width="216" height="30" as="alternateBounds" />
          </mxGeometry>
        </mxCell>
        <mxCell id="HxpxRqRVrvvPyobryTdf-187" style="edgeStyle=orthogonalEdgeStyle;rounded=0;orthogonalLoop=1;jettySize=auto;html=1;strokeWidth=2;strokeColor=#FFB570;endArrow=ERmany;endFill=0;endSize=15;" parent="1" source="HxpxRqRVrvvPyobryTdf-157" target="HxpxRqRVrvvPyobryTdf-147" edge="1">
          <mxGeometry relative="1" as="geometry" />
        </mxCell>
        <mxCell id="HxpxRqRVrvvPyobryTdf-157" value="&lt;span style=&quot;font-size: 15px;&quot;&gt;スレッド Table&lt;/span&gt;" style="shape=table;startSize=30;container=1;collapsible=1;childLayout=tableLayout;fixedRows=1;rowLines=0;fontStyle=1;align=center;resizeLast=1;html=1;" parent="1" vertex="1">
          <mxGeometry x="720" y="810" width="246" height="300" as="geometry" />
        </mxCell>
        <mxCell id="HxpxRqRVrvvPyobryTdf-158" value="" style="shape=tableRow;horizontal=0;startSize=0;swimlaneHead=0;swimlaneBody=0;fillColor=none;collapsible=0;dropTarget=0;points=[[0,0.5],[1,0.5]];portConstraint=eastwest;top=0;left=0;right=0;bottom=1;" parent="HxpxRqRVrvvPyobryTdf-157" vertex="1">
          <mxGeometry y="30" width="246" height="30" as="geometry" />
        </mxCell>
        <mxCell id="HxpxRqRVrvvPyobryTdf-159" value="&lt;font style=&quot;font-size: 15px;&quot;&gt;PK&lt;/font&gt;" style="shape=partialRectangle;connectable=0;fillColor=none;top=0;left=0;bottom=0;right=0;fontStyle=1;overflow=hidden;whiteSpace=wrap;html=1;" parent="HxpxRqRVrvvPyobryTdf-158" vertex="1">
          <mxGeometry width="30" height="30" as="geometry">
            <mxRectangle width="30" height="30" as="alternateBounds" />
          </mxGeometry>
        </mxCell>
        <mxCell id="HxpxRqRVrvvPyobryTdf-160" value="&lt;font style=&quot;font-size: 15px;&quot;&gt;スレッドID&lt;/font&gt;" style="shape=partialRectangle;connectable=0;fillColor=none;top=0;left=0;bottom=0;right=0;align=left;spacingLeft=6;fontStyle=5;overflow=hidden;whiteSpace=wrap;html=1;" parent="HxpxRqRVrvvPyobryTdf-158" vertex="1">
          <mxGeometry x="30" width="216" height="30" as="geometry">
            <mxRectangle width="216" height="30" as="alternateBounds" />
          </mxGeometry>
        </mxCell>
        <mxCell id="HxpxRqRVrvvPyobryTdf-213" value="" style="shape=tableRow;horizontal=0;startSize=0;swimlaneHead=0;swimlaneBody=0;fillColor=none;collapsible=0;dropTarget=0;points=[[0,0.5],[1,0.5]];portConstraint=eastwest;top=0;left=0;right=0;bottom=0;" parent="HxpxRqRVrvvPyobryTdf-157" vertex="1">
          <mxGeometry y="60" width="246" height="40" as="geometry" />
        </mxCell>
        <mxCell id="HxpxRqRVrvvPyobryTdf-214" value="" style="shape=partialRectangle;connectable=0;fillColor=none;top=0;left=0;bottom=0;right=0;editable=1;overflow=hidden;whiteSpace=wrap;html=1;" parent="HxpxRqRVrvvPyobryTdf-213" vertex="1">
          <mxGeometry width="30" height="40" as="geometry">
            <mxRectangle width="30" height="40" as="alternateBounds" />
          </mxGeometry>
        </mxCell>
        <mxCell id="HxpxRqRVrvvPyobryTdf-215" value="&lt;span style=&quot;font-size: 15px;&quot;&gt;タスクID（FK）&lt;/span&gt;" style="shape=partialRectangle;connectable=0;fillColor=none;top=0;left=0;bottom=0;right=0;align=left;spacingLeft=6;overflow=hidden;whiteSpace=wrap;html=1;" parent="HxpxRqRVrvvPyobryTdf-213" vertex="1">
          <mxGeometry x="30" width="216" height="40" as="geometry">
            <mxRectangle width="216" height="40" as="alternateBounds" />
          </mxGeometry>
        </mxCell>
        <mxCell id="HxpxRqRVrvvPyobryTdf-164" value="" style="shape=tableRow;horizontal=0;startSize=0;swimlaneHead=0;swimlaneBody=0;fillColor=none;collapsible=0;dropTarget=0;points=[[0,0.5],[1,0.5]];portConstraint=eastwest;top=0;left=0;right=0;bottom=0;" parent="HxpxRqRVrvvPyobryTdf-157" vertex="1">
          <mxGeometry y="100" width="246" height="30" as="geometry" />
        </mxCell>
        <mxCell id="HxpxRqRVrvvPyobryTdf-165" value="" style="shape=partialRectangle;connectable=0;fillColor=none;top=0;left=0;bottom=0;right=0;editable=1;overflow=hidden;whiteSpace=wrap;html=1;" parent="HxpxRqRVrvvPyobryTdf-164" vertex="1">
          <mxGeometry width="30" height="30" as="geometry">
            <mxRectangle width="30" height="30" as="alternateBounds" />
          </mxGeometry>
        </mxCell>
        <mxCell id="HxpxRqRVrvvPyobryTdf-166" value="&lt;span style=&quot;font-size: 15px;&quot;&gt;作成者_社員ID（FK）&lt;/span&gt;" style="shape=partialRectangle;connectable=0;fillColor=none;top=0;left=0;bottom=0;right=0;align=left;spacingLeft=6;overflow=hidden;whiteSpace=wrap;html=1;" parent="HxpxRqRVrvvPyobryTdf-164" vertex="1">
          <mxGeometry x="30" width="216" height="30" as="geometry">
            <mxRectangle width="216" height="30" as="alternateBounds" />
          </mxGeometry>
        </mxCell>
        <mxCell id="HxpxRqRVrvvPyobryTdf-167" value="" style="shape=tableRow;horizontal=0;startSize=0;swimlaneHead=0;swimlaneBody=0;fillColor=none;collapsible=0;dropTarget=0;points=[[0,0.5],[1,0.5]];portConstraint=eastwest;top=0;left=0;right=0;bottom=0;" parent="HxpxRqRVrvvPyobryTdf-157" vertex="1">
          <mxGeometry y="130" width="246" height="30" as="geometry" />
        </mxCell>
        <mxCell id="HxpxRqRVrvvPyobryTdf-168" value="" style="shape=partialRectangle;connectable=0;fillColor=none;top=0;left=0;bottom=0;right=0;editable=1;overflow=hidden;whiteSpace=wrap;html=1;" parent="HxpxRqRVrvvPyobryTdf-167" vertex="1">
          <mxGeometry width="30" height="30" as="geometry">
            <mxRectangle width="30" height="30" as="alternateBounds" />
          </mxGeometry>
        </mxCell>
        <mxCell id="HxpxRqRVrvvPyobryTdf-169" value="&lt;span style=&quot;font-size: 15px;&quot;&gt;宛先_社員ID（FK）&lt;/span&gt;" style="shape=partialRectangle;connectable=0;fillColor=none;top=0;left=0;bottom=0;right=0;align=left;spacingLeft=6;overflow=hidden;whiteSpace=wrap;html=1;" parent="HxpxRqRVrvvPyobryTdf-167" vertex="1">
          <mxGeometry x="30" width="216" height="30" as="geometry">
            <mxRectangle width="216" height="30" as="alternateBounds" />
          </mxGeometry>
        </mxCell>
        <mxCell id="HxpxRqRVrvvPyobryTdf-161" value="" style="shape=tableRow;horizontal=0;startSize=0;swimlaneHead=0;swimlaneBody=0;fillColor=none;collapsible=0;dropTarget=0;points=[[0,0.5],[1,0.5]];portConstraint=eastwest;top=0;left=0;right=0;bottom=0;" parent="HxpxRqRVrvvPyobryTdf-157" vertex="1">
          <mxGeometry y="160" width="246" height="40" as="geometry" />
        </mxCell>
        <mxCell id="HxpxRqRVrvvPyobryTdf-162" value="" style="shape=partialRectangle;connectable=0;fillColor=none;top=0;left=0;bottom=0;right=0;editable=1;overflow=hidden;whiteSpace=wrap;html=1;" parent="HxpxRqRVrvvPyobryTdf-161" vertex="1">
          <mxGeometry width="30" height="40" as="geometry">
            <mxRectangle width="30" height="40" as="alternateBounds" />
          </mxGeometry>
        </mxCell>
        <mxCell id="HxpxRqRVrvvPyobryTdf-163" value="&lt;span style=&quot;font-size: 15px;&quot;&gt;作成日時&lt;/span&gt;" style="shape=partialRectangle;connectable=0;fillColor=none;top=0;left=0;bottom=0;right=0;align=left;spacingLeft=6;overflow=hidden;whiteSpace=wrap;html=1;" parent="HxpxRqRVrvvPyobryTdf-161" vertex="1">
          <mxGeometry x="30" width="216" height="40" as="geometry">
            <mxRectangle width="216" height="40" as="alternateBounds" />
          </mxGeometry>
        </mxCell>
        <mxCell id="HxpxRqRVrvvPyobryTdf-170" value="" style="shape=tableRow;horizontal=0;startSize=0;swimlaneHead=0;swimlaneBody=0;fillColor=none;collapsible=0;dropTarget=0;points=[[0,0.5],[1,0.5]];portConstraint=eastwest;top=0;left=0;right=0;bottom=0;" parent="HxpxRqRVrvvPyobryTdf-157" vertex="1">
          <mxGeometry y="200" width="246" height="30" as="geometry" />
        </mxCell>
        <mxCell id="HxpxRqRVrvvPyobryTdf-171" value="" style="shape=partialRectangle;connectable=0;fillColor=none;top=0;left=0;bottom=0;right=0;editable=1;overflow=hidden;whiteSpace=wrap;html=1;" parent="HxpxRqRVrvvPyobryTdf-170" vertex="1">
          <mxGeometry width="30" height="30" as="geometry">
            <mxRectangle width="30" height="30" as="alternateBounds" />
          </mxGeometry>
        </mxCell>
        <mxCell id="HxpxRqRVrvvPyobryTdf-172" value="&lt;span style=&quot;font-size: 15px;&quot;&gt;タイトル&lt;/span&gt;" style="shape=partialRectangle;connectable=0;fillColor=none;top=0;left=0;bottom=0;right=0;align=left;spacingLeft=6;overflow=hidden;whiteSpace=wrap;html=1;" parent="HxpxRqRVrvvPyobryTdf-170" vertex="1">
          <mxGeometry x="30" width="216" height="30" as="geometry">
            <mxRectangle width="216" height="30" as="alternateBounds" />
          </mxGeometry>
        </mxCell>
        <mxCell id="HxpxRqRVrvvPyobryTdf-173" value="" style="shape=tableRow;horizontal=0;startSize=0;swimlaneHead=0;swimlaneBody=0;fillColor=none;collapsible=0;dropTarget=0;points=[[0,0.5],[1,0.5]];portConstraint=eastwest;top=0;left=0;right=0;bottom=0;" parent="HxpxRqRVrvvPyobryTdf-157" vertex="1">
          <mxGeometry y="230" width="246" height="30" as="geometry" />
        </mxCell>
        <mxCell id="HxpxRqRVrvvPyobryTdf-174" value="" style="shape=partialRectangle;connectable=0;fillColor=none;top=0;left=0;bottom=0;right=0;editable=1;overflow=hidden;whiteSpace=wrap;html=1;" parent="HxpxRqRVrvvPyobryTdf-173" vertex="1">
          <mxGeometry width="30" height="30" as="geometry">
            <mxRectangle width="30" height="30" as="alternateBounds" />
          </mxGeometry>
        </mxCell>
        <mxCell id="HxpxRqRVrvvPyobryTdf-175" value="&lt;span style=&quot;font-size: 15px;&quot;&gt;本文&lt;/span&gt;" style="shape=partialRectangle;connectable=0;fillColor=none;top=0;left=0;bottom=0;right=0;align=left;spacingLeft=6;overflow=hidden;whiteSpace=wrap;html=1;" parent="HxpxRqRVrvvPyobryTdf-173" vertex="1">
          <mxGeometry x="30" width="216" height="30" as="geometry">
            <mxRectangle width="216" height="30" as="alternateBounds" />
          </mxGeometry>
        </mxCell>
        <mxCell id="HxpxRqRVrvvPyobryTdf-176" value="" style="shape=tableRow;horizontal=0;startSize=0;swimlaneHead=0;swimlaneBody=0;fillColor=none;collapsible=0;dropTarget=0;points=[[0,0.5],[1,0.5]];portConstraint=eastwest;top=0;left=0;right=0;bottom=0;" parent="HxpxRqRVrvvPyobryTdf-157" vertex="1">
          <mxGeometry y="260" width="246" height="30" as="geometry" />
        </mxCell>
        <mxCell id="HxpxRqRVrvvPyobryTdf-177" value="" style="shape=partialRectangle;connectable=0;fillColor=none;top=0;left=0;bottom=0;right=0;editable=1;overflow=hidden;whiteSpace=wrap;html=1;" parent="HxpxRqRVrvvPyobryTdf-176" vertex="1">
          <mxGeometry width="30" height="30" as="geometry">
            <mxRectangle width="30" height="30" as="alternateBounds" />
          </mxGeometry>
        </mxCell>
        <mxCell id="HxpxRqRVrvvPyobryTdf-178" value="&lt;span style=&quot;font-size: 15px;&quot;&gt;解決フラグ&lt;/span&gt;" style="shape=partialRectangle;connectable=0;fillColor=none;top=0;left=0;bottom=0;right=0;align=left;spacingLeft=6;overflow=hidden;whiteSpace=wrap;html=1;" parent="HxpxRqRVrvvPyobryTdf-176" vertex="1">
          <mxGeometry x="30" width="216" height="30" as="geometry">
            <mxRectangle width="216" height="30" as="alternateBounds" />
          </mxGeometry>
        </mxCell>
        <mxCell id="HxpxRqRVrvvPyobryTdf-188" style="edgeStyle=orthogonalEdgeStyle;rounded=0;orthogonalLoop=1;jettySize=auto;html=1;strokeWidth=2;strokeColor=#FFB570;endArrow=ERmany;endFill=0;endSize=15;exitX=1;exitY=0.5;exitDx=0;exitDy=0;" parent="1" source="HxpxRqRVrvvPyobryTdf-126" target="HxpxRqRVrvvPyobryTdf-157" edge="1">
          <mxGeometry relative="1" as="geometry">
            <Array as="points">
              <mxPoint x="1020" y="475" />
              <mxPoint x="1020" y="860" />
            </Array>
          </mxGeometry>
        </mxCell>
        <mxCell id="HxpxRqRVrvvPyobryTdf-190" style="edgeStyle=orthogonalEdgeStyle;rounded=0;orthogonalLoop=1;jettySize=auto;html=1;exitX=1;exitY=0.5;exitDx=0;exitDy=0;entryX=0.25;entryY=0;entryDx=0;entryDy=0;strokeWidth=2;strokeColor=#FFB570;endArrow=ERmany;endFill=0;endSize=15;" parent="1" source="HxpxRqRVrvvPyobryTdf-123" target="HxpxRqRVrvvPyobryTdf-147" edge="1">
          <mxGeometry relative="1" as="geometry" />
        </mxCell>
        <mxCell id="HxpxRqRVrvvPyobryTdf-219" value="&lt;span style=&quot;font-size: 15px;&quot;&gt;既読管理　Table&lt;/span&gt;" style="shape=table;startSize=30;container=1;collapsible=1;childLayout=tableLayout;fixedRows=1;rowLines=0;fontStyle=1;align=center;resizeLast=1;html=1;" parent="1" vertex="1">
          <mxGeometry x="1124" y="530" width="246" height="175" as="geometry" />
        </mxCell>
        <mxCell id="HxpxRqRVrvvPyobryTdf-220" value="" style="shape=tableRow;horizontal=0;startSize=0;swimlaneHead=0;swimlaneBody=0;fillColor=none;collapsible=0;dropTarget=0;points=[[0,0.5],[1,0.5]];portConstraint=eastwest;top=0;left=0;right=0;bottom=1;" parent="HxpxRqRVrvvPyobryTdf-219" vertex="1">
          <mxGeometry y="30" width="246" height="30" as="geometry" />
        </mxCell>
        <mxCell id="HxpxRqRVrvvPyobryTdf-221" value="&lt;font style=&quot;font-size: 15px;&quot;&gt;PK&lt;/font&gt;" style="shape=partialRectangle;connectable=0;fillColor=none;top=0;left=0;bottom=0;right=0;fontStyle=1;overflow=hidden;whiteSpace=wrap;html=1;" parent="HxpxRqRVrvvPyobryTdf-220" vertex="1">
          <mxGeometry width="30" height="30" as="geometry">
            <mxRectangle width="30" height="30" as="alternateBounds" />
          </mxGeometry>
        </mxCell>
        <mxCell id="HxpxRqRVrvvPyobryTdf-222" value="&lt;font style=&quot;font-size: 15px;&quot;&gt;既読管理ID&lt;/font&gt;" style="shape=partialRectangle;connectable=0;fillColor=none;top=0;left=0;bottom=0;right=0;align=left;spacingLeft=6;fontStyle=5;overflow=hidden;whiteSpace=wrap;html=1;" parent="HxpxRqRVrvvPyobryTdf-220" vertex="1">
          <mxGeometry x="30" width="216" height="30" as="geometry">
            <mxRectangle width="216" height="30" as="alternateBounds" />
          </mxGeometry>
        </mxCell>
        <mxCell id="HxpxRqRVrvvPyobryTdf-235" value="" style="shape=tableRow;horizontal=0;startSize=0;swimlaneHead=0;swimlaneBody=0;fillColor=none;collapsible=0;dropTarget=0;points=[[0,0.5],[1,0.5]];portConstraint=eastwest;top=0;left=0;right=0;bottom=0;" parent="HxpxRqRVrvvPyobryTdf-219" vertex="1">
          <mxGeometry y="60" width="246" height="30" as="geometry" />
        </mxCell>
        <mxCell id="HxpxRqRVrvvPyobryTdf-236" value="" style="shape=partialRectangle;connectable=0;fillColor=none;top=0;left=0;bottom=0;right=0;editable=1;overflow=hidden;whiteSpace=wrap;html=1;" parent="HxpxRqRVrvvPyobryTdf-235" vertex="1">
          <mxGeometry width="30" height="30" as="geometry">
            <mxRectangle width="30" height="30" as="alternateBounds" />
          </mxGeometry>
        </mxCell>
        <mxCell id="HxpxRqRVrvvPyobryTdf-237" value="&lt;span style=&quot;font-size: 15px;&quot;&gt;社員ID（FK）&lt;/span&gt;" style="shape=partialRectangle;connectable=0;fillColor=none;top=0;left=0;bottom=0;right=0;align=left;spacingLeft=6;overflow=hidden;whiteSpace=wrap;html=1;" parent="HxpxRqRVrvvPyobryTdf-235" vertex="1">
          <mxGeometry x="30" width="216" height="30" as="geometry">
            <mxRectangle width="216" height="30" as="alternateBounds" />
          </mxGeometry>
        </mxCell>
        <mxCell id="HxpxRqRVrvvPyobryTdf-229" value="" style="shape=tableRow;horizontal=0;startSize=0;swimlaneHead=0;swimlaneBody=0;fillColor=none;collapsible=0;dropTarget=0;points=[[0,0.5],[1,0.5]];portConstraint=eastwest;top=0;left=0;right=0;bottom=0;" parent="HxpxRqRVrvvPyobryTdf-219" vertex="1">
          <mxGeometry y="90" width="246" height="25" as="geometry" />
        </mxCell>
        <mxCell id="HxpxRqRVrvvPyobryTdf-230" value="" style="shape=partialRectangle;connectable=0;fillColor=none;top=0;left=0;bottom=0;right=0;editable=1;overflow=hidden;whiteSpace=wrap;html=1;" parent="HxpxRqRVrvvPyobryTdf-229" vertex="1">
          <mxGeometry width="30" height="25" as="geometry">
            <mxRectangle width="30" height="25" as="alternateBounds" />
          </mxGeometry>
        </mxCell>
        <mxCell id="HxpxRqRVrvvPyobryTdf-231" value="&lt;span style=&quot;font-size: 15px;&quot;&gt;返信ID（FK）&lt;/span&gt;" style="shape=partialRectangle;connectable=0;fillColor=none;top=0;left=0;bottom=0;right=0;align=left;spacingLeft=6;overflow=hidden;whiteSpace=wrap;html=1;" parent="HxpxRqRVrvvPyobryTdf-229" vertex="1">
          <mxGeometry x="30" width="216" height="25" as="geometry">
            <mxRectangle width="216" height="25" as="alternateBounds" />
          </mxGeometry>
        </mxCell>
        <mxCell id="HxpxRqRVrvvPyobryTdf-226" value="" style="shape=tableRow;horizontal=0;startSize=0;swimlaneHead=0;swimlaneBody=0;fillColor=none;collapsible=0;dropTarget=0;points=[[0,0.5],[1,0.5]];portConstraint=eastwest;top=0;left=0;right=0;bottom=0;" parent="HxpxRqRVrvvPyobryTdf-219" vertex="1">
          <mxGeometry y="115" width="246" height="30" as="geometry" />
        </mxCell>
        <mxCell id="HxpxRqRVrvvPyobryTdf-227" value="" style="shape=partialRectangle;connectable=0;fillColor=none;top=0;left=0;bottom=0;right=0;editable=1;overflow=hidden;whiteSpace=wrap;html=1;" parent="HxpxRqRVrvvPyobryTdf-226" vertex="1">
          <mxGeometry width="30" height="30" as="geometry">
            <mxRectangle width="30" height="30" as="alternateBounds" />
          </mxGeometry>
        </mxCell>
        <mxCell id="HxpxRqRVrvvPyobryTdf-228" value="&lt;span style=&quot;font-size: 15px;&quot;&gt;異読フラグ&lt;br&gt;&lt;/span&gt;" style="shape=partialRectangle;connectable=0;fillColor=none;top=0;left=0;bottom=0;right=0;align=left;spacingLeft=6;overflow=hidden;whiteSpace=wrap;html=1;" parent="HxpxRqRVrvvPyobryTdf-226" vertex="1">
          <mxGeometry x="30" width="216" height="30" as="geometry">
            <mxRectangle width="216" height="30" as="alternateBounds" />
          </mxGeometry>
        </mxCell>
        <mxCell id="HxpxRqRVrvvPyobryTdf-223" value="" style="shape=tableRow;horizontal=0;startSize=0;swimlaneHead=0;swimlaneBody=0;fillColor=none;collapsible=0;dropTarget=0;points=[[0,0.5],[1,0.5]];portConstraint=eastwest;top=0;left=0;right=0;bottom=0;" parent="HxpxRqRVrvvPyobryTdf-219" vertex="1">
          <mxGeometry y="145" width="246" height="30" as="geometry" />
        </mxCell>
        <mxCell id="HxpxRqRVrvvPyobryTdf-224" value="" style="shape=partialRectangle;connectable=0;fillColor=none;top=0;left=0;bottom=0;right=0;editable=1;overflow=hidden;whiteSpace=wrap;html=1;" parent="HxpxRqRVrvvPyobryTdf-223" vertex="1">
          <mxGeometry width="30" height="30" as="geometry">
            <mxRectangle width="30" height="30" as="alternateBounds" />
          </mxGeometry>
        </mxCell>
        <mxCell id="HxpxRqRVrvvPyobryTdf-225" value="&lt;span style=&quot;font-size: 15px;&quot;&gt;既読日時&lt;br&gt;&lt;/span&gt;" style="shape=partialRectangle;connectable=0;fillColor=none;top=0;left=0;bottom=0;right=0;align=left;spacingLeft=6;overflow=hidden;whiteSpace=wrap;html=1;" parent="HxpxRqRVrvvPyobryTdf-223" vertex="1">
          <mxGeometry x="30" width="216" height="30" as="geometry">
            <mxRectangle width="216" height="30" as="alternateBounds" />
          </mxGeometry>
        </mxCell>
        <mxCell id="HxpxRqRVrvvPyobryTdf-238" style="edgeStyle=orthogonalEdgeStyle;rounded=0;orthogonalLoop=1;jettySize=auto;html=1;strokeWidth=2;strokeColor=#FFB570;endArrow=ERmany;endFill=0;endSize=15;exitX=1;exitY=0.5;exitDx=0;exitDy=0;" parent="1" source="HxpxRqRVrvvPyobryTdf-123" target="HxpxRqRVrvvPyobryTdf-219" edge="1">
          <mxGeometry relative="1" as="geometry">
            <mxPoint x="992" y="398" as="sourcePoint" />
            <mxPoint x="1112" y="868" as="targetPoint" />
          </mxGeometry>
        </mxCell>
        <mxCell id="aaeVy9RQNNlQTV8ZLGuT-20" value="&lt;span style=&quot;font-size: 15px;&quot;&gt;通知先管理　Table&lt;/span&gt;" style="shape=table;startSize=30;container=1;collapsible=1;childLayout=tableLayout;fixedRows=1;rowLines=0;fontStyle=1;align=center;resizeLast=1;html=1;" parent="1" vertex="1">
          <mxGeometry x="1070" y="230" width="246" height="145" as="geometry" />
        </mxCell>
        <mxCell id="aaeVy9RQNNlQTV8ZLGuT-21" value="" style="shape=tableRow;horizontal=0;startSize=0;swimlaneHead=0;swimlaneBody=0;fillColor=none;collapsible=0;dropTarget=0;points=[[0,0.5],[1,0.5]];portConstraint=eastwest;top=0;left=0;right=0;bottom=1;" parent="aaeVy9RQNNlQTV8ZLGuT-20" vertex="1">
          <mxGeometry y="30" width="246" height="30" as="geometry" />
        </mxCell>
        <mxCell id="aaeVy9RQNNlQTV8ZLGuT-22" value="&lt;font style=&quot;font-size: 15px;&quot;&gt;PK&lt;/font&gt;" style="shape=partialRectangle;connectable=0;fillColor=none;top=0;left=0;bottom=0;right=0;fontStyle=1;overflow=hidden;whiteSpace=wrap;html=1;" parent="aaeVy9RQNNlQTV8ZLGuT-21" vertex="1">
          <mxGeometry width="30" height="30" as="geometry">
            <mxRectangle width="30" height="30" as="alternateBounds" />
          </mxGeometry>
        </mxCell>
        <mxCell id="aaeVy9RQNNlQTV8ZLGuT-23" value="&lt;font style=&quot;font-size: 15px;&quot;&gt;通知先管理ID&lt;/font&gt;" style="shape=partialRectangle;connectable=0;fillColor=none;top=0;left=0;bottom=0;right=0;align=left;spacingLeft=6;fontStyle=5;overflow=hidden;whiteSpace=wrap;html=1;" parent="aaeVy9RQNNlQTV8ZLGuT-21" vertex="1">
          <mxGeometry x="30" width="216" height="30" as="geometry">
            <mxRectangle width="216" height="30" as="alternateBounds" />
          </mxGeometry>
        </mxCell>
        <mxCell id="aaeVy9RQNNlQTV8ZLGuT-24" value="" style="shape=tableRow;horizontal=0;startSize=0;swimlaneHead=0;swimlaneBody=0;fillColor=none;collapsible=0;dropTarget=0;points=[[0,0.5],[1,0.5]];portConstraint=eastwest;top=0;left=0;right=0;bottom=0;" parent="aaeVy9RQNNlQTV8ZLGuT-20" vertex="1">
          <mxGeometry y="60" width="246" height="30" as="geometry" />
        </mxCell>
        <mxCell id="aaeVy9RQNNlQTV8ZLGuT-25" value="" style="shape=partialRectangle;connectable=0;fillColor=none;top=0;left=0;bottom=0;right=0;editable=1;overflow=hidden;whiteSpace=wrap;html=1;" parent="aaeVy9RQNNlQTV8ZLGuT-24" vertex="1">
          <mxGeometry width="30" height="30" as="geometry">
            <mxRectangle width="30" height="30" as="alternateBounds" />
          </mxGeometry>
        </mxCell>
        <mxCell id="aaeVy9RQNNlQTV8ZLGuT-26" value="&lt;span style=&quot;font-size: 15px;&quot;&gt;社員ID（FK）&lt;br&gt;&lt;/span&gt;" style="shape=partialRectangle;connectable=0;fillColor=none;top=0;left=0;bottom=0;right=0;align=left;spacingLeft=6;overflow=hidden;whiteSpace=wrap;html=1;" parent="aaeVy9RQNNlQTV8ZLGuT-24" vertex="1">
          <mxGeometry x="30" width="216" height="30" as="geometry">
            <mxRectangle width="216" height="30" as="alternateBounds" />
          </mxGeometry>
        </mxCell>
        <mxCell id="aaeVy9RQNNlQTV8ZLGuT-27" value="" style="shape=tableRow;horizontal=0;startSize=0;swimlaneHead=0;swimlaneBody=0;fillColor=none;collapsible=0;dropTarget=0;points=[[0,0.5],[1,0.5]];portConstraint=eastwest;top=0;left=0;right=0;bottom=0;" parent="aaeVy9RQNNlQTV8ZLGuT-20" vertex="1">
          <mxGeometry y="90" width="246" height="30" as="geometry" />
        </mxCell>
        <mxCell id="aaeVy9RQNNlQTV8ZLGuT-28" value="" style="shape=partialRectangle;connectable=0;fillColor=none;top=0;left=0;bottom=0;right=0;editable=1;overflow=hidden;whiteSpace=wrap;html=1;" parent="aaeVy9RQNNlQTV8ZLGuT-27" vertex="1">
          <mxGeometry width="30" height="30" as="geometry">
            <mxRectangle width="30" height="30" as="alternateBounds" />
          </mxGeometry>
        </mxCell>
        <mxCell id="aaeVy9RQNNlQTV8ZLGuT-29" value="&lt;span style=&quot;font-size: 15px;&quot;&gt;ツール&lt;br&gt;&lt;/span&gt;" style="shape=partialRectangle;connectable=0;fillColor=none;top=0;left=0;bottom=0;right=0;align=left;spacingLeft=6;overflow=hidden;whiteSpace=wrap;html=1;" parent="aaeVy9RQNNlQTV8ZLGuT-27" vertex="1">
          <mxGeometry x="30" width="216" height="30" as="geometry">
            <mxRectangle width="216" height="30" as="alternateBounds" />
          </mxGeometry>
        </mxCell>
        <mxCell id="aaeVy9RQNNlQTV8ZLGuT-30" value="" style="shape=tableRow;horizontal=0;startSize=0;swimlaneHead=0;swimlaneBody=0;fillColor=none;collapsible=0;dropTarget=0;points=[[0,0.5],[1,0.5]];portConstraint=eastwest;top=0;left=0;right=0;bottom=0;" parent="aaeVy9RQNNlQTV8ZLGuT-20" vertex="1">
          <mxGeometry y="120" width="246" height="25" as="geometry" />
        </mxCell>
        <mxCell id="aaeVy9RQNNlQTV8ZLGuT-31" value="" style="shape=partialRectangle;connectable=0;fillColor=none;top=0;left=0;bottom=0;right=0;editable=1;overflow=hidden;whiteSpace=wrap;html=1;" parent="aaeVy9RQNNlQTV8ZLGuT-30" vertex="1">
          <mxGeometry width="30" height="25" as="geometry">
            <mxRectangle width="30" height="25" as="alternateBounds" />
          </mxGeometry>
        </mxCell>
        <mxCell id="aaeVy9RQNNlQTV8ZLGuT-32" value="&lt;span style=&quot;font-size: 15px;&quot;&gt;アカウント管理&lt;/span&gt;" style="shape=partialRectangle;connectable=0;fillColor=none;top=0;left=0;bottom=0;right=0;align=left;spacingLeft=6;overflow=hidden;whiteSpace=wrap;html=1;" parent="aaeVy9RQNNlQTV8ZLGuT-30" vertex="1">
          <mxGeometry x="30" width="216" height="25" as="geometry">
            <mxRectangle width="216" height="25" as="alternateBounds" />
          </mxGeometry>
        </mxCell>
        <mxCell id="aaeVy9RQNNlQTV8ZLGuT-53" style="edgeStyle=orthogonalEdgeStyle;rounded=0;orthogonalLoop=1;jettySize=auto;html=1;strokeColor=#FFB570;strokeWidth=2;endArrow=ERmany;endFill=0;endSize=15;" parent="1" source="aaeVy9RQNNlQTV8ZLGuT-39" target="aaeVy9RQNNlQTV8ZLGuT-20" edge="1">
          <mxGeometry relative="1" as="geometry" />
        </mxCell>
        <mxCell id="aaeVy9RQNNlQTV8ZLGuT-39" value="&lt;span style=&quot;font-size: 15px;&quot;&gt;連絡ツール　Mst&lt;/span&gt;" style="shape=table;startSize=30;container=1;collapsible=1;childLayout=tableLayout;fixedRows=1;rowLines=0;fontStyle=1;align=center;resizeLast=1;html=1;" parent="1" vertex="1">
          <mxGeometry x="1370" y="257.5" width="246" height="90" as="geometry" />
        </mxCell>
        <mxCell id="aaeVy9RQNNlQTV8ZLGuT-40" value="" style="shape=tableRow;horizontal=0;startSize=0;swimlaneHead=0;swimlaneBody=0;fillColor=none;collapsible=0;dropTarget=0;points=[[0,0.5],[1,0.5]];portConstraint=eastwest;top=0;left=0;right=0;bottom=1;" parent="aaeVy9RQNNlQTV8ZLGuT-39" vertex="1">
          <mxGeometry y="30" width="246" height="30" as="geometry" />
        </mxCell>
        <mxCell id="aaeVy9RQNNlQTV8ZLGuT-41" value="&lt;font style=&quot;font-size: 15px;&quot;&gt;PK&lt;/font&gt;" style="shape=partialRectangle;connectable=0;fillColor=none;top=0;left=0;bottom=0;right=0;fontStyle=1;overflow=hidden;whiteSpace=wrap;html=1;" parent="aaeVy9RQNNlQTV8ZLGuT-40" vertex="1">
          <mxGeometry width="30" height="30" as="geometry">
            <mxRectangle width="30" height="30" as="alternateBounds" />
          </mxGeometry>
        </mxCell>
        <mxCell id="aaeVy9RQNNlQTV8ZLGuT-42" value="&lt;font style=&quot;font-size: 15px;&quot;&gt;ツールID&lt;/font&gt;" style="shape=partialRectangle;connectable=0;fillColor=none;top=0;left=0;bottom=0;right=0;align=left;spacingLeft=6;fontStyle=5;overflow=hidden;whiteSpace=wrap;html=1;" parent="aaeVy9RQNNlQTV8ZLGuT-40" vertex="1">
          <mxGeometry x="30" width="216" height="30" as="geometry">
            <mxRectangle width="216" height="30" as="alternateBounds" />
          </mxGeometry>
        </mxCell>
        <mxCell id="aaeVy9RQNNlQTV8ZLGuT-43" value="" style="shape=tableRow;horizontal=0;startSize=0;swimlaneHead=0;swimlaneBody=0;fillColor=none;collapsible=0;dropTarget=0;points=[[0,0.5],[1,0.5]];portConstraint=eastwest;top=0;left=0;right=0;bottom=0;" parent="aaeVy9RQNNlQTV8ZLGuT-39" vertex="1">
          <mxGeometry y="60" width="246" height="30" as="geometry" />
        </mxCell>
        <mxCell id="aaeVy9RQNNlQTV8ZLGuT-44" value="" style="shape=partialRectangle;connectable=0;fillColor=none;top=0;left=0;bottom=0;right=0;editable=1;overflow=hidden;whiteSpace=wrap;html=1;" parent="aaeVy9RQNNlQTV8ZLGuT-43" vertex="1">
          <mxGeometry width="30" height="30" as="geometry">
            <mxRectangle width="30" height="30" as="alternateBounds" />
          </mxGeometry>
        </mxCell>
        <mxCell id="aaeVy9RQNNlQTV8ZLGuT-45" value="&lt;span style=&quot;font-size: 15px;&quot;&gt;ツール名&lt;br&gt;&lt;/span&gt;" style="shape=partialRectangle;connectable=0;fillColor=none;top=0;left=0;bottom=0;right=0;align=left;spacingLeft=6;overflow=hidden;whiteSpace=wrap;html=1;" parent="aaeVy9RQNNlQTV8ZLGuT-43" vertex="1">
          <mxGeometry x="30" width="216" height="30" as="geometry">
            <mxRectangle width="216" height="30" as="alternateBounds" />
          </mxGeometry>
        </mxCell>
        <mxCell id="aaeVy9RQNNlQTV8ZLGuT-52" style="edgeStyle=orthogonalEdgeStyle;rounded=0;orthogonalLoop=1;jettySize=auto;html=1;strokeColor=#FFB570;strokeWidth=2;endArrow=ERmany;endFill=0;endSize=15;" parent="1" source="HxpxRqRVrvvPyobryTdf-117" target="aaeVy9RQNNlQTV8ZLGuT-20" edge="1">
          <mxGeometry relative="1" as="geometry" />
        </mxCell>
      </root>
    </mxGraphModel>
  </diagram>
  <diagram id="nHEzrX4ZKF2hAH-HnJAV" name="データフロー図（DFD）">
    <mxGraphModel dx="504" dy="741" grid="1" gridSize="10" guides="1" tooltips="1" connect="1" arrows="1" fold="1" page="1" pageScale="1" pageWidth="827" pageHeight="1169" math="0" shadow="0">
      <root>
        <mxCell id="0" />
        <mxCell id="1" parent="0" />
        <mxCell id="NtCk9MDZPrWVMzJd6SuT-1" value="データフロー図（DFD）&lt;br&gt;作り方：ユースケースを起点に「機能設計⇔DFD」を往復" style="text;html=1;align=center;verticalAlign=middle;resizable=0;points=[];autosize=1;strokeColor=none;fillColor=none;" parent="1" vertex="1">
          <mxGeometry x="20" y="45" width="340" height="40" as="geometry" />
        </mxCell>
        <mxCell id="NtCk9MDZPrWVMzJd6SuT-2" value="■タスク確認" style="text;html=1;align=center;verticalAlign=middle;resizable=0;points=[];autosize=1;strokeColor=none;fillColor=none;" parent="1" vertex="1">
          <mxGeometry x="55" y="110" width="90" height="30" as="geometry" />
        </mxCell>
        <mxCell id="NtCk9MDZPrWVMzJd6SuT-27" style="edgeStyle=orthogonalEdgeStyle;rounded=0;orthogonalLoop=1;jettySize=auto;html=1;entryX=0;entryY=1;entryDx=0;entryDy=0;exitX=1;exitY=0.75;exitDx=0;exitDy=0;strokeColor=#FFB570;" parent="1" source="NtCk9MDZPrWVMzJd6SuT-3" target="NtCk9MDZPrWVMzJd6SuT-20" edge="1">
          <mxGeometry relative="1" as="geometry">
            <Array as="points">
              <mxPoint x="220" y="235" />
              <mxPoint x="220" y="308" />
            </Array>
          </mxGeometry>
        </mxCell>
        <mxCell id="NtCk9MDZPrWVMzJd6SuT-3" value="&lt;font color=&quot;#000000&quot;&gt;PG&lt;br&gt;（タスク一覧/詳細）&lt;/font&gt;" style="rounded=1;whiteSpace=wrap;html=1;fillColor=#dae8fc;strokeColor=#6c8ebf;" parent="1" vertex="1">
          <mxGeometry x="40" y="190" width="120" height="60" as="geometry" />
        </mxCell>
        <mxCell id="NtCk9MDZPrWVMzJd6SuT-23" style="edgeStyle=orthogonalEdgeStyle;rounded=0;orthogonalLoop=1;jettySize=auto;html=1;strokeColor=#FFB570;" parent="1" source="NtCk9MDZPrWVMzJd6SuT-4" target="NtCk9MDZPrWVMzJd6SuT-20" edge="1">
          <mxGeometry relative="1" as="geometry" />
        </mxCell>
        <mxCell id="NtCk9MDZPrWVMzJd6SuT-4" value="&lt;font color=&quot;#000000&quot;&gt;タスク&lt;br&gt;一覧検索&lt;br&gt;&lt;/font&gt;" style="ellipse;whiteSpace=wrap;html=1;fillColor=#f8cecc;strokeColor=#b85450;strokeWidth=2;" parent="1" vertex="1">
          <mxGeometry x="304" y="130" width="110" height="80" as="geometry" />
        </mxCell>
        <mxCell id="NtCk9MDZPrWVMzJd6SuT-5" value="" style="endArrow=classic;html=1;rounded=0;strokeColor=#FFB570;strokeWidth=1;" parent="1" source="NtCk9MDZPrWVMzJd6SuT-3" target="NtCk9MDZPrWVMzJd6SuT-4" edge="1">
          <mxGeometry width="50" height="50" relative="1" as="geometry">
            <mxPoint x="190" y="190" as="sourcePoint" />
            <mxPoint x="240" y="140" as="targetPoint" />
            <Array as="points" />
          </mxGeometry>
        </mxCell>
        <mxCell id="NtCk9MDZPrWVMzJd6SuT-13" style="edgeStyle=orthogonalEdgeStyle;rounded=0;orthogonalLoop=1;jettySize=auto;html=1;strokeColor=#FFB570;" parent="1" source="NtCk9MDZPrWVMzJd6SuT-6" target="NtCk9MDZPrWVMzJd6SuT-4" edge="1">
          <mxGeometry relative="1" as="geometry" />
        </mxCell>
        <mxCell id="NtCk9MDZPrWVMzJd6SuT-6" value="&lt;font color=&quot;#000000&quot;&gt;社員情報&lt;/font&gt;" style="html=1;dashed=0;whiteSpace=wrap;shape=partialRectangle;right=0;left=0;fillColor=#fff2cc;strokeColor=#d6b656;strokeWidth=2;" parent="1" vertex="1">
          <mxGeometry x="430" y="85" width="100" height="30" as="geometry" />
        </mxCell>
        <mxCell id="NtCk9MDZPrWVMzJd6SuT-9" value="一覧リクエスト&lt;br&gt;（全タスク　or　特定のPJ）" style="text;html=1;align=center;verticalAlign=middle;resizable=0;points=[];autosize=1;strokeColor=none;fillColor=none;" parent="1" vertex="1">
          <mxGeometry x="120" y="140" width="180" height="40" as="geometry" />
        </mxCell>
        <mxCell id="NtCk9MDZPrWVMzJd6SuT-18" style="edgeStyle=orthogonalEdgeStyle;rounded=0;orthogonalLoop=1;jettySize=auto;html=1;entryX=1;entryY=0;entryDx=0;entryDy=0;strokeColor=#FFB570;" parent="1" source="NtCk9MDZPrWVMzJd6SuT-10" target="NtCk9MDZPrWVMzJd6SuT-4" edge="1">
          <mxGeometry relative="1" as="geometry" />
        </mxCell>
        <mxCell id="NtCk9MDZPrWVMzJd6SuT-10" value="&lt;font color=&quot;#000000&quot;&gt;プロジェクト情報&lt;/font&gt;" style="html=1;dashed=0;whiteSpace=wrap;shape=partialRectangle;right=0;left=0;fillColor=#fff2cc;strokeColor=#d6b656;strokeWidth=2;" parent="1" vertex="1">
          <mxGeometry x="460" y="120" width="110" height="30" as="geometry" />
        </mxCell>
        <mxCell id="NtCk9MDZPrWVMzJd6SuT-15" style="edgeStyle=orthogonalEdgeStyle;rounded=0;orthogonalLoop=1;jettySize=auto;html=1;strokeColor=#FFB570;" parent="1" source="NtCk9MDZPrWVMzJd6SuT-11" target="NtCk9MDZPrWVMzJd6SuT-4" edge="1">
          <mxGeometry relative="1" as="geometry" />
        </mxCell>
        <mxCell id="NtCk9MDZPrWVMzJd6SuT-11" value="&lt;font color=&quot;#000000&quot;&gt;タスク情報&lt;/font&gt;" style="html=1;dashed=0;whiteSpace=wrap;shape=partialRectangle;right=0;left=0;fillColor=#fff2cc;strokeColor=#d6b656;strokeWidth=2;" parent="1" vertex="1">
          <mxGeometry x="490" y="155" width="100" height="30" as="geometry" />
        </mxCell>
        <mxCell id="NtCk9MDZPrWVMzJd6SuT-19" style="edgeStyle=orthogonalEdgeStyle;rounded=0;orthogonalLoop=1;jettySize=auto;html=1;entryX=1;entryY=1;entryDx=0;entryDy=0;strokeColor=#FFB570;" parent="1" source="NtCk9MDZPrWVMzJd6SuT-16" target="NtCk9MDZPrWVMzJd6SuT-4" edge="1">
          <mxGeometry relative="1" as="geometry" />
        </mxCell>
        <mxCell id="NtCk9MDZPrWVMzJd6SuT-16" value="&lt;font color=&quot;#000000&quot;&gt;マイルストーン情報&lt;/font&gt;" style="html=1;dashed=0;whiteSpace=wrap;shape=partialRectangle;right=0;left=0;fillColor=#fff2cc;strokeColor=#d6b656;strokeWidth=2;" parent="1" vertex="1">
          <mxGeometry x="490" y="200" width="120" height="30" as="geometry" />
        </mxCell>
        <mxCell id="NtCk9MDZPrWVMzJd6SuT-24" style="edgeStyle=orthogonalEdgeStyle;rounded=0;orthogonalLoop=1;jettySize=auto;html=1;strokeColor=#FFB570;" parent="1" source="NtCk9MDZPrWVMzJd6SuT-20" target="NtCk9MDZPrWVMzJd6SuT-3" edge="1">
          <mxGeometry relative="1" as="geometry" />
        </mxCell>
        <mxCell id="NtCk9MDZPrWVMzJd6SuT-20" value="&lt;font color=&quot;#000000&quot;&gt;ステータスで&lt;br&gt;グループ分け&lt;br&gt;&lt;/font&gt;" style="ellipse;whiteSpace=wrap;html=1;fillColor=#f8cecc;strokeColor=#b85450;strokeWidth=2;" parent="1" vertex="1">
          <mxGeometry x="304" y="240" width="110" height="80" as="geometry" />
        </mxCell>
        <mxCell id="NtCk9MDZPrWVMzJd6SuT-25" value="一覧情報" style="text;html=1;align=center;verticalAlign=middle;resizable=0;points=[];autosize=1;strokeColor=none;fillColor=none;" parent="1" vertex="1">
          <mxGeometry x="230" y="250" width="70" height="30" as="geometry" />
        </mxCell>
        <mxCell id="NtCk9MDZPrWVMzJd6SuT-26" value="タスク情報" style="text;html=1;align=center;verticalAlign=middle;resizable=0;points=[];autosize=1;strokeColor=none;fillColor=none;" parent="1" vertex="1">
          <mxGeometry x="290" y="210" width="80" height="30" as="geometry" />
        </mxCell>
        <mxCell id="NtCk9MDZPrWVMzJd6SuT-28" value="タスク詳細情報" style="text;html=1;align=center;verticalAlign=middle;resizable=0;points=[];autosize=1;strokeColor=none;fillColor=none;" parent="1" vertex="1">
          <mxGeometry x="180" y="310" width="110" height="30" as="geometry" />
        </mxCell>
        <mxCell id="NtCk9MDZPrWVMzJd6SuT-31" style="edgeStyle=orthogonalEdgeStyle;rounded=0;orthogonalLoop=1;jettySize=auto;html=1;strokeColor=#FFB570;" parent="1" source="NtCk9MDZPrWVMzJd6SuT-29" target="NtCk9MDZPrWVMzJd6SuT-20" edge="1">
          <mxGeometry relative="1" as="geometry" />
        </mxCell>
        <mxCell id="NtCk9MDZPrWVMzJd6SuT-29" value="&lt;font color=&quot;#000000&quot;&gt;タスク情報&lt;/font&gt;" style="html=1;dashed=0;whiteSpace=wrap;shape=partialRectangle;right=0;left=0;fillColor=#fff2cc;strokeColor=#d6b656;strokeWidth=2;" parent="1" vertex="1">
          <mxGeometry x="450" y="265" width="120" height="30" as="geometry" />
        </mxCell>
        <mxCell id="NtCk9MDZPrWVMzJd6SuT-32" style="edgeStyle=orthogonalEdgeStyle;rounded=0;orthogonalLoop=1;jettySize=auto;html=1;strokeColor=#FFB570;" parent="1" source="NtCk9MDZPrWVMzJd6SuT-30" target="NtCk9MDZPrWVMzJd6SuT-20" edge="1">
          <mxGeometry relative="1" as="geometry" />
        </mxCell>
        <mxCell id="NtCk9MDZPrWVMzJd6SuT-30" value="&lt;font color=&quot;#000000&quot;&gt;スレッド情報&lt;/font&gt;" style="html=1;dashed=0;whiteSpace=wrap;shape=partialRectangle;right=0;left=0;fillColor=#fff2cc;strokeColor=#d6b656;strokeWidth=2;" parent="1" vertex="1">
          <mxGeometry x="430" y="330" width="120" height="30" as="geometry" />
        </mxCell>
        <mxCell id="NtCk9MDZPrWVMzJd6SuT-33" value="■タスクのステータス変更" style="text;html=1;align=center;verticalAlign=middle;resizable=0;points=[];autosize=1;strokeColor=none;fillColor=none;" parent="1" vertex="1">
          <mxGeometry x="40" y="385" width="160" height="30" as="geometry" />
        </mxCell>
        <mxCell id="NtCk9MDZPrWVMzJd6SuT-39" style="edgeStyle=orthogonalEdgeStyle;rounded=0;orthogonalLoop=1;jettySize=auto;html=1;strokeColor=#FFB570;" parent="1" source="NtCk9MDZPrWVMzJd6SuT-34" target="NtCk9MDZPrWVMzJd6SuT-35" edge="1">
          <mxGeometry relative="1" as="geometry" />
        </mxCell>
        <mxCell id="NtCk9MDZPrWVMzJd6SuT-34" value="&lt;font color=&quot;#000000&quot;&gt;PG&lt;br&gt;（タスク一覧/詳細）&lt;/font&gt;" style="rounded=1;whiteSpace=wrap;html=1;fillColor=#dae8fc;strokeColor=#6c8ebf;" parent="1" vertex="1">
          <mxGeometry x="60" y="470" width="120" height="60" as="geometry" />
        </mxCell>
        <mxCell id="NtCk9MDZPrWVMzJd6SuT-44" style="edgeStyle=orthogonalEdgeStyle;rounded=0;orthogonalLoop=1;jettySize=auto;html=1;strokeColor=#FFB570;" parent="1" source="NtCk9MDZPrWVMzJd6SuT-35" target="NtCk9MDZPrWVMzJd6SuT-36" edge="1">
          <mxGeometry relative="1" as="geometry" />
        </mxCell>
        <mxCell id="NtCk9MDZPrWVMzJd6SuT-35" value="&lt;font color=&quot;#000000&quot;&gt;タスク&lt;br&gt;一覧検索&lt;br&gt;&lt;/font&gt;" style="ellipse;whiteSpace=wrap;html=1;fillColor=#f8cecc;strokeColor=#b85450;strokeWidth=2;" parent="1" vertex="1">
          <mxGeometry x="324" y="410" width="110" height="80" as="geometry" />
        </mxCell>
        <mxCell id="NtCk9MDZPrWVMzJd6SuT-45" style="edgeStyle=orthogonalEdgeStyle;rounded=0;orthogonalLoop=1;jettySize=auto;html=1;strokeColor=#FFB570;" parent="1" source="NtCk9MDZPrWVMzJd6SuT-36" target="NtCk9MDZPrWVMzJd6SuT-38" edge="1">
          <mxGeometry relative="1" as="geometry" />
        </mxCell>
        <mxCell id="NtCk9MDZPrWVMzJd6SuT-46" style="edgeStyle=orthogonalEdgeStyle;rounded=0;orthogonalLoop=1;jettySize=auto;html=1;strokeColor=#FFB570;" parent="1" source="NtCk9MDZPrWVMzJd6SuT-36" target="NtCk9MDZPrWVMzJd6SuT-34" edge="1">
          <mxGeometry relative="1" as="geometry" />
        </mxCell>
        <mxCell id="NtCk9MDZPrWVMzJd6SuT-36" value="&lt;font color=&quot;#000000&quot;&gt;ステータスで&lt;br&gt;グループ分け&lt;br&gt;&lt;/font&gt;" style="ellipse;whiteSpace=wrap;html=1;fillColor=#f8cecc;strokeColor=#b85450;strokeWidth=2;" parent="1" vertex="1">
          <mxGeometry x="324" y="535" width="110" height="80" as="geometry" />
        </mxCell>
        <mxCell id="NtCk9MDZPrWVMzJd6SuT-38" value="&lt;font color=&quot;#000000&quot;&gt;スレッド情報&lt;/font&gt;" style="html=1;dashed=0;whiteSpace=wrap;shape=partialRectangle;right=0;left=0;fillColor=#fff2cc;strokeColor=#d6b656;strokeWidth=2;" parent="1" vertex="1">
          <mxGeometry x="470" y="560" width="120" height="30" as="geometry" />
        </mxCell>
        <mxCell id="NtCk9MDZPrWVMzJd6SuT-43" value="ステータス変更の&lt;br&gt;リクエスト" style="text;html=1;align=center;verticalAlign=middle;resizable=0;points=[];autosize=1;strokeColor=none;fillColor=none;" parent="1" vertex="1">
          <mxGeometry x="185" y="415" width="120" height="40" as="geometry" />
        </mxCell>
        <mxCell id="NtCk9MDZPrWVMzJd6SuT-47" value="完了通知" style="text;html=1;align=center;verticalAlign=middle;resizable=0;points=[];autosize=1;strokeColor=none;fillColor=none;" parent="1" vertex="1">
          <mxGeometry x="185" y="580" width="70" height="30" as="geometry" />
        </mxCell>
        <mxCell id="NtCk9MDZPrWVMzJd6SuT-48" value="■スレッド作成" style="text;html=1;align=center;verticalAlign=middle;resizable=0;points=[];autosize=1;strokeColor=none;fillColor=none;" parent="1" vertex="1">
          <mxGeometry x="45" y="670" width="100" height="30" as="geometry" />
        </mxCell>
        <mxCell id="NtCk9MDZPrWVMzJd6SuT-53" style="edgeStyle=orthogonalEdgeStyle;rounded=0;orthogonalLoop=1;jettySize=auto;html=1;strokeColor=#FFB570;" parent="1" source="NtCk9MDZPrWVMzJd6SuT-49" target="NtCk9MDZPrWVMzJd6SuT-50" edge="1">
          <mxGeometry relative="1" as="geometry" />
        </mxCell>
        <mxCell id="NtCk9MDZPrWVMzJd6SuT-87" value="スレッド情報" style="edgeLabel;html=1;align=center;verticalAlign=middle;resizable=0;points=[];" parent="NtCk9MDZPrWVMzJd6SuT-53" vertex="1" connectable="0">
          <mxGeometry x="0.01" relative="1" as="geometry">
            <mxPoint as="offset" />
          </mxGeometry>
        </mxCell>
        <mxCell id="NtCk9MDZPrWVMzJd6SuT-49" value="&lt;font color=&quot;#000000&quot;&gt;PG&lt;br&gt;（スレッド作成）&lt;/font&gt;" style="rounded=1;whiteSpace=wrap;html=1;fillColor=#dae8fc;strokeColor=#6c8ebf;" parent="1" vertex="1">
          <mxGeometry x="20" y="805" width="120" height="60" as="geometry" />
        </mxCell>
        <mxCell id="NtCk9MDZPrWVMzJd6SuT-55" style="edgeStyle=orthogonalEdgeStyle;rounded=0;orthogonalLoop=1;jettySize=auto;html=1;strokeColor=#FFB570;" parent="1" source="NtCk9MDZPrWVMzJd6SuT-50" target="NtCk9MDZPrWVMzJd6SuT-51" edge="1">
          <mxGeometry relative="1" as="geometry" />
        </mxCell>
        <mxCell id="NtCk9MDZPrWVMzJd6SuT-88" value="スレッド作成&lt;br&gt;リクエスト" style="edgeLabel;html=1;align=center;verticalAlign=middle;resizable=0;points=[];" parent="NtCk9MDZPrWVMzJd6SuT-55" vertex="1" connectable="0">
          <mxGeometry x="-0.0444" y="-5" relative="1" as="geometry">
            <mxPoint as="offset" />
          </mxGeometry>
        </mxCell>
        <mxCell id="NtCk9MDZPrWVMzJd6SuT-50" value="&lt;font color=&quot;#000000&quot;&gt;バリデーション&lt;br&gt;&lt;/font&gt;" style="ellipse;whiteSpace=wrap;html=1;fillColor=#f8cecc;strokeColor=#b85450;strokeWidth=2;" parent="1" vertex="1">
          <mxGeometry x="145" y="720" width="110" height="80" as="geometry" />
        </mxCell>
        <mxCell id="NtCk9MDZPrWVMzJd6SuT-61" style="edgeStyle=orthogonalEdgeStyle;rounded=0;orthogonalLoop=1;jettySize=auto;html=1;strokeColor=#FFB570;entryX=0;entryY=0;entryDx=0;entryDy=0;" parent="1" source="NtCk9MDZPrWVMzJd6SuT-51" target="NtCk9MDZPrWVMzJd6SuT-60" edge="1">
          <mxGeometry relative="1" as="geometry" />
        </mxCell>
        <mxCell id="NtCk9MDZPrWVMzJd6SuT-89" value="受付情報" style="edgeLabel;html=1;align=center;verticalAlign=middle;resizable=0;points=[];" parent="NtCk9MDZPrWVMzJd6SuT-61" vertex="1" connectable="0">
          <mxGeometry x="-0.0321" y="1" relative="1" as="geometry">
            <mxPoint as="offset" />
          </mxGeometry>
        </mxCell>
        <mxCell id="NtCk9MDZPrWVMzJd6SuT-51" value="&lt;font color=&quot;#000000&quot;&gt;存在チェック&lt;br&gt;&lt;/font&gt;" style="ellipse;whiteSpace=wrap;html=1;fillColor=#f8cecc;strokeColor=#b85450;strokeWidth=2;" parent="1" vertex="1">
          <mxGeometry x="380" y="725" width="110" height="80" as="geometry" />
        </mxCell>
        <mxCell id="NtCk9MDZPrWVMzJd6SuT-57" style="edgeStyle=orthogonalEdgeStyle;rounded=0;orthogonalLoop=1;jettySize=auto;html=1;strokeColor=#FFB570;" parent="1" source="NtCk9MDZPrWVMzJd6SuT-52" target="NtCk9MDZPrWVMzJd6SuT-51" edge="1">
          <mxGeometry relative="1" as="geometry" />
        </mxCell>
        <mxCell id="NtCk9MDZPrWVMzJd6SuT-52" value="&lt;font color=&quot;#000000&quot;&gt;社員情報&lt;/font&gt;" style="html=1;dashed=0;whiteSpace=wrap;shape=partialRectangle;right=0;left=0;fillColor=#fff2cc;strokeColor=#d6b656;strokeWidth=2;" parent="1" vertex="1">
          <mxGeometry x="590" y="680" width="120" height="30" as="geometry" />
        </mxCell>
        <mxCell id="NtCk9MDZPrWVMzJd6SuT-59" style="edgeStyle=orthogonalEdgeStyle;rounded=0;orthogonalLoop=1;jettySize=auto;html=1;entryX=1;entryY=0;entryDx=0;entryDy=0;strokeColor=#FFB570;" parent="1" source="NtCk9MDZPrWVMzJd6SuT-58" target="NtCk9MDZPrWVMzJd6SuT-51" edge="1">
          <mxGeometry relative="1" as="geometry" />
        </mxCell>
        <mxCell id="NtCk9MDZPrWVMzJd6SuT-58" value="&lt;font color=&quot;#000000&quot;&gt;タスク情報&lt;/font&gt;" style="html=1;dashed=0;whiteSpace=wrap;shape=partialRectangle;right=0;left=0;fillColor=#fff2cc;strokeColor=#d6b656;strokeWidth=2;" parent="1" vertex="1">
          <mxGeometry x="590" y="721" width="120" height="30" as="geometry" />
        </mxCell>
        <mxCell id="NtCk9MDZPrWVMzJd6SuT-65" style="edgeStyle=orthogonalEdgeStyle;rounded=0;orthogonalLoop=1;jettySize=auto;html=1;strokeColor=#FFB570;" parent="1" source="NtCk9MDZPrWVMzJd6SuT-60" target="NtCk9MDZPrWVMzJd6SuT-63" edge="1">
          <mxGeometry relative="1" as="geometry" />
        </mxCell>
        <mxCell id="NtCk9MDZPrWVMzJd6SuT-67" style="edgeStyle=orthogonalEdgeStyle;rounded=0;orthogonalLoop=1;jettySize=auto;html=1;strokeColor=#FFB570;" parent="1" source="NtCk9MDZPrWVMzJd6SuT-60" target="NtCk9MDZPrWVMzJd6SuT-66" edge="1">
          <mxGeometry relative="1" as="geometry" />
        </mxCell>
        <mxCell id="NtCk9MDZPrWVMzJd6SuT-90" value="サマリー情報" style="edgeLabel;html=1;align=center;verticalAlign=middle;resizable=0;points=[];" parent="NtCk9MDZPrWVMzJd6SuT-67" vertex="1" connectable="0">
          <mxGeometry x="0.4778" y="-1" relative="1" as="geometry">
            <mxPoint as="offset" />
          </mxGeometry>
        </mxCell>
        <mxCell id="NtCk9MDZPrWVMzJd6SuT-60" value="&lt;font color=&quot;#000000&quot;&gt;スレッド作成&lt;br&gt;（保存）&lt;br&gt;&lt;/font&gt;" style="ellipse;whiteSpace=wrap;html=1;fillColor=#f8cecc;strokeColor=#b85450;strokeWidth=2;" parent="1" vertex="1">
          <mxGeometry x="560" y="795" width="110" height="80" as="geometry" />
        </mxCell>
        <mxCell id="NtCk9MDZPrWVMzJd6SuT-63" value="&lt;font color=&quot;#000000&quot;&gt;スレッド情報&lt;/font&gt;" style="html=1;dashed=0;whiteSpace=wrap;shape=partialRectangle;right=0;left=0;fillColor=#fff2cc;strokeColor=#d6b656;strokeWidth=2;" parent="1" vertex="1">
          <mxGeometry x="700" y="820" width="120" height="30" as="geometry" />
        </mxCell>
        <mxCell id="NtCk9MDZPrWVMzJd6SuT-72" style="edgeStyle=orthogonalEdgeStyle;rounded=0;orthogonalLoop=1;jettySize=auto;html=1;strokeColor=#FFB570;" parent="1" source="NtCk9MDZPrWVMzJd6SuT-66" target="NtCk9MDZPrWVMzJd6SuT-71" edge="1">
          <mxGeometry relative="1" as="geometry" />
        </mxCell>
        <mxCell id="NtCk9MDZPrWVMzJd6SuT-92" style="edgeStyle=orthogonalEdgeStyle;rounded=0;orthogonalLoop=1;jettySize=auto;html=1;strokeColor=#FFB570;" parent="1" source="NtCk9MDZPrWVMzJd6SuT-66" target="NtCk9MDZPrWVMzJd6SuT-78" edge="1">
          <mxGeometry relative="1" as="geometry" />
        </mxCell>
        <mxCell id="NtCk9MDZPrWVMzJd6SuT-93" value="サマリー情報" style="edgeLabel;html=1;align=center;verticalAlign=middle;resizable=0;points=[];" parent="NtCk9MDZPrWVMzJd6SuT-92" vertex="1" connectable="0">
          <mxGeometry x="-0.0769" y="-1" relative="1" as="geometry">
            <mxPoint as="offset" />
          </mxGeometry>
        </mxCell>
        <mxCell id="NtCk9MDZPrWVMzJd6SuT-66" value="&lt;font color=&quot;#000000&quot;&gt;スレッド作成&lt;br&gt;（保存）&lt;br&gt;&lt;/font&gt;" style="ellipse;whiteSpace=wrap;html=1;fillColor=#f8cecc;strokeColor=#b85450;strokeWidth=2;" parent="1" vertex="1">
          <mxGeometry x="420" y="880" width="110" height="80" as="geometry" />
        </mxCell>
        <mxCell id="NtCk9MDZPrWVMzJd6SuT-74" style="edgeStyle=orthogonalEdgeStyle;rounded=0;orthogonalLoop=1;jettySize=auto;html=1;strokeColor=#FFB570;" parent="1" source="NtCk9MDZPrWVMzJd6SuT-70" target="NtCk9MDZPrWVMzJd6SuT-66" edge="1">
          <mxGeometry relative="1" as="geometry" />
        </mxCell>
        <mxCell id="NtCk9MDZPrWVMzJd6SuT-91" value="社員のSlackアカウント情報" style="edgeLabel;html=1;align=center;verticalAlign=middle;resizable=0;points=[];" parent="NtCk9MDZPrWVMzJd6SuT-74" vertex="1" connectable="0">
          <mxGeometry x="0.0819" y="4" relative="1" as="geometry">
            <mxPoint as="offset" />
          </mxGeometry>
        </mxCell>
        <mxCell id="NtCk9MDZPrWVMzJd6SuT-70" value="&lt;font color=&quot;#000000&quot;&gt;連絡先情報&lt;/font&gt;" style="html=1;dashed=0;whiteSpace=wrap;shape=partialRectangle;right=0;left=0;fillColor=#fff2cc;strokeColor=#d6b656;strokeWidth=2;" parent="1" vertex="1">
          <mxGeometry x="680" y="960" width="120" height="30" as="geometry" />
        </mxCell>
        <mxCell id="NtCk9MDZPrWVMzJd6SuT-81" style="edgeStyle=orthogonalEdgeStyle;rounded=0;orthogonalLoop=1;jettySize=auto;html=1;strokeColor=#FFB570;" parent="1" source="NtCk9MDZPrWVMzJd6SuT-71" target="NtCk9MDZPrWVMzJd6SuT-79" edge="1">
          <mxGeometry relative="1" as="geometry" />
        </mxCell>
        <mxCell id="NtCk9MDZPrWVMzJd6SuT-95" value="完了情報" style="edgeLabel;html=1;align=center;verticalAlign=middle;resizable=0;points=[];" parent="NtCk9MDZPrWVMzJd6SuT-81" vertex="1" connectable="0">
          <mxGeometry x="-0.2133" y="-1" relative="1" as="geometry">
            <mxPoint x="1" as="offset" />
          </mxGeometry>
        </mxCell>
        <mxCell id="NtCk9MDZPrWVMzJd6SuT-78" value="&lt;font color=&quot;#000000&quot;&gt;SE&lt;br&gt;（Slack）&lt;/font&gt;" style="rounded=1;whiteSpace=wrap;html=1;fillColor=#dae8fc;strokeColor=#6c8ebf;" parent="1" vertex="1">
          <mxGeometry x="415" y="1020" width="120" height="60" as="geometry" />
        </mxCell>
        <mxCell id="NtCk9MDZPrWVMzJd6SuT-79" value="&lt;font color=&quot;#000000&quot;&gt;PG&lt;br&gt;（スレッド作成）&lt;/font&gt;" style="rounded=1;whiteSpace=wrap;html=1;fillColor=#dae8fc;strokeColor=#6c8ebf;" parent="1" vertex="1">
          <mxGeometry x="30" y="890" width="120" height="60" as="geometry" />
        </mxCell>
        <mxCell id="NtCk9MDZPrWVMzJd6SuT-84" value="" style="edgeStyle=orthogonalEdgeStyle;rounded=0;orthogonalLoop=1;jettySize=auto;html=1;strokeColor=#FFB570;" parent="1" source="NtCk9MDZPrWVMzJd6SuT-66" target="NtCk9MDZPrWVMzJd6SuT-71" edge="1">
          <mxGeometry relative="1" as="geometry">
            <mxPoint x="420" y="920" as="sourcePoint" />
            <mxPoint x="155" y="1070" as="targetPoint" />
            <Array as="points" />
          </mxGeometry>
        </mxCell>
        <mxCell id="NtCk9MDZPrWVMzJd6SuT-94" value="API&lt;br&gt;レスポンス" style="edgeLabel;html=1;align=center;verticalAlign=middle;resizable=0;points=[];" parent="NtCk9MDZPrWVMzJd6SuT-84" vertex="1" connectable="0">
          <mxGeometry x="-0.0222" y="-3" relative="1" as="geometry">
            <mxPoint x="1" as="offset" />
          </mxGeometry>
        </mxCell>
        <mxCell id="NtCk9MDZPrWVMzJd6SuT-71" value="&lt;font color=&quot;#000000&quot;&gt;スレッド作成&lt;br&gt;（保存）&lt;br&gt;&lt;/font&gt;" style="ellipse;whiteSpace=wrap;html=1;fillColor=#f8cecc;strokeColor=#b85450;strokeWidth=2;" parent="1" vertex="1">
          <mxGeometry x="210" y="910" width="110" height="80" as="geometry" />
        </mxCell>
      </root>
    </mxGraphModel>
  </diagram>
</mxfile>
